<svg xmlns="http://www.w3.org/2000/svg" width="512" height="512" viewBox="0 0 512 512">
<g>
<path d="M 2.45 509.55 L 0.00 507.09 L -0.00 419.18 C-0.00,331.76 0.01,331.26 2.07,328.63 C4.78,325.19 9.75,325.04 12.83,328.31 L 15.00 330.63 L 15.00 408.52 L 15.00 486.42 L 30.82 470.71 C39.52,462.07 47.43,455.00 48.39,455.00 C51.81,455.00 54.73,457.44 72.75,475.35 L 91.00 493.48 L 109.75 474.84 C120.06,464.58 129.50,455.90 130.71,455.54 C131.93,455.18 133.95,455.41 135.21,456.05 C136.47,456.69 145.71,465.37 155.75,475.35 L 174.00 493.48 L 192.96 474.54 C210.51,457.01 212.19,455.60 215.50,455.60 C218.81,455.60 220.49,457.01 238.04,474.54 L 257.00 493.48 L 275.25 475.35 C293.27,457.44 296.19,455.00 299.61,455.00 C300.57,455.00 308.48,462.07 317.18,470.71 L 333.00 486.42 L 333.00 461.71 L 333.00 437.00 L 276.54 437.00 C222.21,437.00 219.87,436.92 214.64,434.97 C207.38,432.25 200.75,426.22 197.31,419.21 L 194.50 413.50 L 194.21 365.75 L 193.93 318.00 L 131.90 318.00 C94.10,318.00 69.17,317.62 68.07,317.04 C67.08,316.51 65.73,314.76 65.06,313.14 C64.06,310.73 64.12,309.68 65.38,307.22 C66.23,305.58 67.65,303.96 68.54,303.62 C69.44,303.28 98.03,303.00 132.08,303.00 L 194.00 303.00 L 194.00 280.53 L 194.00 258.06 L 131.53 257.78 L 69.05 257.50 L 66.86 255.31 C63.99,252.43 63.99,247.57 66.86,244.69 L 69.05 242.50 L 132.39 242.23 L 195.72 241.96 L 197.54 237.92 C200.06,232.32 206.47,226.17 213.00,223.09 L 218.50 220.50 L 275.75 220.22 L 333.00 219.94 L 333.00 158.97 C333.00,99.33 333.04,97.96 335.00,96.00 C337.98,93.02 343.33,93.33 345.93,96.63 C347.97,99.23 348.00,100.08 348.00,159.63 L 348.00 220.00 L 377.87 220.00 C406.56,220.00 407.83,220.08 410.37,222.07 C413.37,224.44 413.94,229.34 411.58,232.56 C410.20,234.45 407.75,234.51 315.83,235.00 C210.44,235.56 218.16,234.99 212.30,242.67 L 209.50 246.34 L 209.23 327.48 L 208.97 408.62 L 211.29 413.01 C212.88,416.02 214.97,418.12 217.96,419.70 L 222.31 422.00 L 352.59 422.00 C442.03,422.00 483.75,421.67 485.68,420.94 C489.87,419.36 494.89,414.07 496.00,410.04 C496.61,407.85 496.98,376.50 496.97,328.00 C496.96,253.96 496.85,249.27 495.12,245.50 C490.83,236.16 487.24,235.10 459.75,235.04 C439.37,235.00 437.87,234.87 436.00,233.00 C432.98,229.98 433.33,224.67 436.73,222.00 C439.38,219.91 440.17,219.86 463.48,220.18 C486.14,220.50 487.79,220.65 492.70,222.86 C499.27,225.82 507.04,233.95 509.57,240.50 C511.42,245.29 511.50,248.96 511.50,329.50 L 511.50 413.50 L 509.03 418.50 C505.45,425.75 498.50,432.29 491.65,434.86 C486.00,436.97 485.01,437.00 416.96,437.00 L 348.00 437.00 L 348.00 472.05 L 348.00 507.09 L 345.55 509.55 C340.61,514.48 339.31,513.68 318.31,492.78 L 299.00 473.57 L 279.69 492.78 C263.57,508.83 259.91,512.00 257.50,512.00 C255.09,512.00 251.43,508.83 235.32,492.79 L 216.02 473.59 L 196.66 492.79 C179.28,510.03 176.95,512.00 173.95,512.00 C170.96,512.00 168.65,510.04 151.31,492.78 L 132.00 473.57 L 112.69 492.78 C96.57,508.83 92.91,512.00 90.50,512.00 C88.09,512.00 84.43,508.83 68.31,492.78 L 49.00 473.57 L 29.69 492.78 C8.69,513.68 7.39,514.48 2.45,509.55 ZM 421.00 407.98 C403.84,400.01 399.82,379.08 412.94,365.97 C420.52,358.39 430.26,356.21 439.99,359.90 C444.92,361.78 445.08,361.78 450.01,359.90 C456.11,357.59 460.00,357.51 466.94,359.58 C477.03,362.57 485.00,373.63 485.00,384.64 C485.00,394.14 477.25,404.83 467.73,408.47 C462.20,410.58 453.21,410.26 448.25,407.78 C445.25,406.28 444.75,406.28 441.75,407.79 C436.61,410.39 426.39,410.48 421.00,407.98 ZM 438.73 391.73 C444.35,386.11 441.83,376.23 434.19,373.94 C422.48,370.43 414.97,386.62 425.30,393.10 C429.45,395.70 435.36,395.09 438.73,391.73 ZM 464.70 393.04 C469.22,390.29 470.86,384.61 468.54,379.72 C466.59,375.61 461.11,372.50 457.44,373.42 C455.35,373.95 455.18,374.34 456.03,376.58 C457.26,379.82 457.28,388.12 456.06,391.33 C455.55,392.69 455.40,394.07 455.73,394.40 C456.96,395.63 461.60,394.93 464.70,393.04 ZM 224.00 388.00 C221.30,385.30 221.36,379.89 224.10,377.40 C225.98,375.71 227.87,375.50 241.50,375.50 C255.13,375.50 257.02,375.71 258.90,377.40 C261.64,379.89 261.70,385.30 259.00,388.00 C257.17,389.83 255.67,390.00 241.50,390.00 C227.33,390.00 225.83,389.83 224.00,388.00 ZM 270.00 388.00 C267.47,385.47 267.43,380.92 269.91,377.86 C271.77,375.56 272.24,375.50 287.38,375.50 C302.04,375.50 303.07,375.63 305.13,377.68 C307.75,380.31 307.89,385.36 305.41,388.10 C303.86,389.81 302.14,390.00 287.85,390.00 C273.33,390.00 271.83,389.83 270.00,388.00 ZM 316.04 387.81 C314.92,386.61 314.00,384.62 314.00,383.39 C314.00,376.38 317.38,375.00 334.53,375.00 L 348.15 375.00 L 351.08 377.92 C354.53,381.38 354.75,383.78 351.93,387.37 L 349.85 390.00 L 333.97 390.00 C318.91,390.00 317.97,389.89 316.04,387.81 ZM 224.63 345.93 C221.33,343.33 221.02,337.98 224.00,335.00 C225.87,333.13 227.33,333.00 247.28,333.00 C270.34,333.00 272.12,333.37 273.41,338.49 C274.14,341.40 271.90,346.44 269.46,347.38 C268.56,347.72 258.71,348.00 247.55,348.00 C228.55,348.00 227.10,347.87 224.63,345.93 ZM 288.91 346.13 C287.24,344.77 286.60,343.22 286.60,340.50 C286.60,337.78 287.24,336.23 288.91,334.87 C291.01,333.17 293.20,333.00 312.44,333.00 C333.32,333.00 333.69,333.04 335.83,335.31 C338.90,338.59 338.70,343.31 335.37,345.93 C332.89,347.87 331.46,348.00 311.98,348.00 C293.19,348.00 291.00,347.82 288.91,346.13 ZM 353.45 345.55 C350.45,342.55 350.32,339.13 353.07,335.63 L 355.15 333.00 L 376.62 333.00 C398.08,333.00 398.09,333.00 400.55,335.45 C401.90,336.80 403.00,339.08 403.00,340.50 C403.00,341.92 401.90,344.20 400.55,345.55 C398.09,348.00 398.06,348.00 377.00,348.00 C355.94,348.00 355.91,348.00 353.45,345.55 ZM 418.63 345.93 C415.33,343.33 415.02,337.98 418.00,335.00 C419.87,333.13 421.33,333.00 441.28,333.00 C464.34,333.00 466.12,333.37 467.41,338.49 C468.14,341.40 465.90,346.44 463.46,347.38 C462.56,347.72 452.71,348.00 441.55,348.00 C422.55,348.00 421.10,347.87 418.63,345.93 ZM 230.20 316.87 C225.48,314.53 221.89,310.34 220.14,305.10 C218.68,300.75 218.63,264.88 220.07,259.68 C220.66,257.58 222.73,254.09 224.69,251.92 C230.58,245.41 234.30,244.80 266.25,245.18 C292.98,245.49 293.58,245.55 297.74,247.93 C300.07,249.26 303.22,252.15 304.74,254.34 L 307.50 258.32 L 307.82 279.91 C308.17,303.29 307.66,306.88 303.26,312.10 C297.79,318.60 295.77,318.95 263.50,318.98 C235.91,319.00 234.29,318.89 230.20,316.87 ZM 291.43 302.43 C292.75,301.11 293.00,297.82 293.00,282.13 C293.00,268.90 292.65,263.05 291.80,262.20 C290.93,261.33 283.21,261.00 263.34,261.00 C237.40,261.00 236.02,261.09 235.04,262.93 C234.44,264.05 234.00,272.17 234.00,282.21 C234.00,296.29 234.29,299.97 235.56,301.78 C237.10,303.98 237.37,304.00 263.49,304.00 C286.13,304.00 290.08,303.78 291.43,302.43 ZM 5.09 304.84 C-0.22,302.87 0.07,311.40 0.03,152.70 L -0.00 4.91 L 2.45 2.45 L 4.91 -0.00 L 174.00 0.00 L 343.09 0.00 L 345.55 2.45 L 348.00 4.91 L 348.00 36.50 L 348.00 68.09 L 345.55 70.55 C342.40,73.70 338.06,73.75 335.17,70.69 C333.05,68.43 333.00,67.71 333.00,41.69 L 333.00 15.00 L 174.00 15.00 L 15.00 15.00 L 15.00 157.57 C15.00,248.65 14.65,300.79 14.02,301.96 C12.68,304.46 8.08,305.94 5.09,304.84 ZM 68.30 195.80 C63.67,193.56 63.40,185.46 67.89,183.06 C69.23,182.34 91.29,182.00 135.98,182.00 L 202.09 182.00 L 204.55 184.45 C205.90,185.80 207.00,187.63 207.00,188.50 C207.00,190.95 204.27,195.68 202.46,196.38 C199.51,197.51 70.69,196.96 68.30,195.80 ZM 224.45 194.55 C221.45,191.55 221.32,188.13 224.07,184.63 L 226.15 182.00 L 252.57 182.00 C277.67,182.00 279.10,182.10 281.00,184.00 C284.25,187.25 284.01,191.50 280.39,194.75 C277.93,196.96 277.42,197.00 252.40,197.00 L 226.91 197.00 L 224.45 194.55 ZM 75.50 124.05 C74.40,123.59 72.38,122.01 71.00,120.53 L 68.50 117.84 L 68.21 85.45 C67.89,49.51 68.01,48.68 74.27,45.27 C76.94,43.81 80.03,43.50 92.03,43.50 C105.65,43.50 106.87,43.66 111.52,46.05 C114.52,47.60 117.67,50.30 119.49,52.89 C122.23,56.78 122.53,58.02 122.85,66.56 C123.16,75.03 122.95,76.40 120.75,80.33 L 118.31 84.70 L 120.40 87.58 C122.09,89.89 122.57,92.25 122.84,99.59 C123.22,109.74 121.80,114.01 116.34,119.20 C111.14,124.13 107.40,125.01 91.78,124.94 C83.93,124.90 76.60,124.50 75.50,124.05 ZM 105.78 108.44 C107.65,107.13 108.00,105.95 108.00,101.00 C108.00,92.82 106.66,92.00 93.28,92.00 L 83.00 92.00 L 83.00 101.00 L 83.00 110.00 L 93.28 110.00 C100.96,110.00 104.12,109.61 105.78,108.44 ZM 106.58 74.56 C108.57,71.83 108.42,63.12 106.35,60.83 C104.94,59.27 103.08,59.00 93.85,59.00 L 83.00 59.00 L 83.00 68.09 L 83.00 77.18 L 94.08 76.84 C103.67,76.55 105.36,76.24 106.58,74.56 ZM 137.00 123.00 C135.07,121.07 135.00,119.67 135.00,84.15 C135.00,48.50 135.07,47.25 137.01,45.49 C140.07,42.72 144.86,43.14 147.69,46.43 L 150.07 49.19 L 149.79 85.19 L 149.50 121.18 L 147.14 123.09 C144.08,125.57 139.53,125.53 137.00,123.00 ZM 163.17 122.69 C161.03,120.40 161.00,119.95 161.00,84.77 C161.00,65.19 161.29,48.40 161.65,47.47 C162.63,44.92 167.91,43.02 170.88,44.14 C175.88,46.05 175.93,46.39 175.97,79.25 L 176.00 110.00 L 193.37 110.00 C209.42,110.00 210.93,110.16 213.37,112.07 C216.67,114.67 216.98,120.02 214.00,123.00 C212.11,124.89 210.67,125.00 188.67,125.00 C165.59,125.00 165.33,124.98 163.17,122.69 ZM 227.06 123.06 C225.99,121.99 224.84,119.62 224.50,117.81 C224.17,115.99 224.03,99.55 224.20,81.28 C224.50,48.60 224.54,48.02 226.69,45.86 C229.57,42.99 234.43,42.99 237.31,45.86 C239.46,48.01 239.51,48.66 239.79,79.03 L 240.08 110.00 L 257.59 110.00 C274.84,110.00 275.13,110.04 277.55,112.45 C280.55,115.45 280.68,118.87 277.93,122.37 L 275.85 125.00 L 252.43 125.00 C230.56,125.00 228.87,124.87 227.06,123.06 Z" fill="rgba(68,102,195,1)"/>
</g>
</svg>