<svg xmlns="http://www.w3.org/2000/svg" width="512" height="512" viewBox="0 0 512 512">
<g>
<path d="M 18.99 511.07 C12.12,508.98 5.96,503.76 2.36,497.00 C0.56,493.61 0.50,485.71 0.50,256.00 L 0.50 18.50 L 2.66 14.50 C5.21,9.78 10.11,4.96 15.00,2.36 C18.37,0.57 25.03,0.49 193.96,0.24 C386.71,-0.05 375.50,-0.39 383.16,5.96 C385.17,7.63 387.99,11.34 389.41,14.19 L 392.00 19.39 L 392.00 104.52 L 392.00 189.65 L 389.69 191.83 C386.39,194.92 381.04,194.74 377.92,191.42 L 375.50 188.84 L 374.98 104.67 C374.69,58.38 374.36,20.40 374.23,20.28 C374.10,20.15 372.67,19.36 371.05,18.53 C368.44,17.18 348.25,17.00 195.47,17.00 L 22.85 17.00 L 19.92 19.92 L 17.00 22.85 L 17.00 256.00 L 17.00 489.15 L 19.93 492.09 L 22.86 495.02 L 196.90 494.76 C362.40,494.51 371.02,494.41 372.71,492.72 C374.36,491.07 374.54,487.35 375.00,444.54 L 375.50 398.16 L 377.92 395.58 C381.14,392.15 386.74,392.03 389.83,395.31 C392.00,397.62 392.00,397.74 392.00,445.12 L 392.00 492.61 L 389.41 497.81 C387.99,500.66 385.20,504.34 383.22,505.97 C375.41,512.41 388.04,512.01 196.07,511.91 C100.06,511.87 20.37,511.48 18.99,511.07 ZM 92.86 476.56 C78.29,473.51 66.04,466.89 55.58,456.42 C17.27,418.12 32.66,354.26 84.50,336.35 C91.66,333.88 93.92,333.58 106.00,333.54 C117.45,333.51 120.63,333.86 126.96,335.84 C140.44,340.08 151.12,346.57 153.08,351.71 C154.46,355.33 151.95,360.36 147.95,362.02 C144.88,363.29 144.32,363.20 140.07,360.67 C127.43,353.17 117.58,349.99 107.04,350.01 C82.21,350.07 61.54,365.49 53.42,390.00 C50.75,398.09 50.89,412.44 53.73,421.54 C62.13,448.42 90.13,465.27 117.00,459.61 C138.97,454.98 155.46,439.11 160.50,417.74 C161.31,414.31 161.98,409.78 161.99,407.68 C162.01,400.97 165.23,397.09 170.80,397.03 C173.04,397.01 174.92,397.83 176.69,399.60 C179.19,402.10 179.26,402.50 178.72,410.95 C177.13,435.42 161.74,458.60 139.90,469.42 C134.73,471.98 128.02,474.74 125.00,475.56 C116.99,477.73 100.84,478.23 92.86,476.56 ZM 210.36 443.03 C207.66,441.92 205.00,438.19 205.00,435.53 C205.00,434.41 209.99,418.52 216.10,400.21 C227.48,366.05 229.12,362.54 235.07,359.46 C238.66,357.61 246.29,357.58 249.80,359.40 C252.88,361.01 256.20,364.43 257.94,367.80 C258.59,369.07 259.86,378.49 260.75,388.74 C261.99,403.02 262.61,406.94 263.43,405.51 C265.95,401.14 271.39,396.03 274.68,394.94 C279.25,393.43 285.01,394.23 289.45,396.97 C292.82,399.05 293.82,400.73 300.07,414.71 L 301.50 417.92 L 310.85 406.40 L 320.19 394.88 L 318.10 390.00 C316.74,386.84 316.00,383.01 316.00,379.09 C316.00,373.65 316.59,371.91 321.96,361.67 C325.23,355.41 331.95,339.53 336.88,326.39 L 345.84 302.50 L 381.90 240.08 L 417.95 177.66 L 413.24 174.57 C407.23,170.64 405.33,167.03 407.07,162.83 C407.79,161.09 409.74,159.14 411.68,158.21 C414.93,156.66 415.25,156.71 420.72,159.39 C427.53,162.73 425.46,164.76 439.18,141.22 C444.72,131.71 450.15,123.46 451.24,122.87 C452.33,122.29 454.76,121.99 456.63,122.21 C459.82,122.58 460.21,122.28 462.92,117.49 C466.22,111.65 471.74,106.42 476.90,104.27 C485.87,100.52 499.07,103.76 505.51,111.28 C513.07,120.12 513.83,131.19 507.64,142.45 C504.20,148.71 504.17,148.85 506.07,150.56 C509.94,154.07 508.70,157.85 497.03,178.03 L 486.06 197.01 L 492.40 201.01 C502.06,207.11 506.00,213.94 506.00,224.58 C506.00,230.89 505.01,232.89 483.75,269.46 C472.87,288.19 466.65,297.90 464.93,298.87 C459.88,301.70 452.97,297.46 453.03,291.56 C453.05,289.45 458.61,278.92 471.03,257.50 C490.42,224.04 491.40,221.54 486.75,217.29 C484.40,215.14 478.03,211.61 477.52,212.18 C477.35,212.35 460.75,241.07 440.62,276.00 L 404.02 339.50 L 388.06 358.82 C379.28,369.45 369.41,382.53 366.11,387.90 C357.91,401.25 351.10,405.58 339.50,404.82 L 334.50 404.50 L 323.78 418.00 C309.61,435.85 304.47,438.67 294.42,434.10 C289.24,431.75 286.82,428.64 283.40,419.93 C281.90,416.09 280.32,413.07 279.89,413.22 C279.47,413.38 278.08,415.03 276.81,416.91 C273.48,421.82 269.87,424.15 264.67,424.73 C258.41,425.44 255.61,424.54 250.98,420.37 C246.05,415.91 245.48,413.73 243.89,393.25 C243.19,384.31 242.36,377.00 242.03,377.00 C241.70,377.00 236.95,390.83 231.47,407.73 C225.79,425.25 220.64,439.42 219.50,440.70 C217.15,443.31 213.37,444.28 210.36,443.03 ZM 346.79 386.43 C348.64,385.14 353.00,378.25 353.00,376.63 C353.00,375.63 339.79,368.86 338.68,369.29 C336.46,370.14 332.88,378.68 333.58,381.45 C334.97,387.01 342.12,389.70 346.79,386.43 ZM 373.46 348.92 C380.32,340.59 383.88,335.48 383.28,334.88 C381.09,332.69 358.45,320.18 357.82,320.81 C356.85,321.80 345.66,352.00 346.12,352.39 C346.45,352.68 362.35,361.93 362.59,361.98 C362.64,361.99 367.53,356.11 373.46,348.92 ZM 428.30 262.63 C446.84,230.52 461.99,203.86 461.98,203.38 C461.95,202.11 433.62,186.00 432.86,186.82 C430.71,189.13 364.95,304.49 365.65,304.73 C366.12,304.89 372.58,308.60 380.00,312.97 C387.42,317.34 393.75,320.93 394.05,320.95 C394.36,320.98 409.77,294.73 428.30,262.63 ZM 479.85 173.42 C484.44,165.41 488.04,158.74 487.85,158.58 C486.30,157.30 458.82,141.86 458.58,142.14 C457.29,143.67 441.83,171.15 442.12,171.39 C443.07,172.18 470.56,187.95 471.00,187.96 C471.27,187.96 475.26,181.42 479.85,173.42 ZM 492.65 134.00 C495.47,128.80 495.20,124.50 491.89,121.75 C488.83,119.21 482.84,119.47 480.29,122.25 C477.50,125.31 474.53,131.33 475.62,131.75 C476.10,131.93 478.98,133.61 482.00,135.48 C485.02,137.34 488.11,138.79 488.85,138.69 C489.60,138.58 491.31,136.48 492.65,134.00 ZM 100.36 429.06 C95.91,427.98 92.79,425.50 81.75,414.23 C72.98,405.28 72.00,403.91 72.00,400.59 C72.00,395.82 75.60,392.00 80.10,392.00 C82.80,392.00 84.87,393.56 93.59,402.14 L 103.89 412.27 L 120.02 396.89 C128.89,388.42 137.10,381.14 138.27,380.71 C143.38,378.81 149.90,385.27 148.50,390.86 C147.70,394.09 116.94,425.34 112.57,427.37 C108.28,429.36 104.03,429.94 100.36,429.06 ZM 62.45 287.55 C60.04,285.13 59.29,281.02 60.62,277.54 C62.29,273.20 64.55,273.00 111.53,273.00 L 156.15 273.00 L 159.08 275.92 C162.81,279.65 162.99,284.10 159.55,287.55 L 157.09 290.00 L 111.00 290.00 L 64.91 290.00 L 62.45 287.55 ZM 181.59 286.92 C178.20,282.89 178.30,279.55 181.92,275.92 L 184.85 273.00 L 217.50 273.00 L 250.15 273.00 L 253.08 275.92 C256.20,279.04 256.71,281.79 254.84,285.32 C252.39,289.91 252.21,289.93 217.34,289.97 L 184.18 290.00 L 181.59 286.92 ZM 66.27 247.31 C60.33,246.13 58.03,237.20 62.58,232.92 L 65.16 230.50 L 153.50 230.50 L 241.84 230.50 L 244.42 232.92 C247.97,236.26 247.98,241.74 244.42,245.08 L 241.84 247.50 L 155.17 247.62 C107.50,247.69 67.50,247.55 66.27,247.31 ZM 271.50 247.31 C264.98,245.65 262.75,237.46 267.58,232.92 L 270.16 230.50 L 303.00 230.50 L 335.84 230.50 L 338.42 232.92 C341.79,236.10 341.86,240.88 338.59,244.69 L 336.18 247.50 L 304.84 247.66 C287.60,247.75 272.60,247.59 271.50,247.31 ZM 139.17 193.69 C137.04,191.41 136.34,186.88 137.62,183.54 C139.39,178.94 137.96,179.00 239.37,179.00 L 334.85 179.00 L 337.92 181.59 C341.90,184.93 342.16,189.93 338.55,193.55 L 336.09 196.00 L 238.72 196.00 L 141.35 196.00 L 139.17 193.69 ZM 107.38 135.58 C101.87,133.15 100.95,125.04 105.79,121.36 C107.16,120.32 125.03,120.06 196.30,120.03 L 285.09 120.00 L 287.55 122.45 C290.72,125.63 290.74,130.03 287.59,133.69 L 285.17 136.50 L 197.84 136.72 C125.78,136.91 109.95,136.71 107.38,135.58 ZM 79.07 99.37 C77.13,96.90 77.00,95.45 77.00,76.45 L 77.00 56.18 L 80.08 53.59 L 83.15 51.00 L 195.63 51.00 C318.00,51.00 312.19,50.73 314.84,56.54 C316.27,59.68 315.59,62.60 312.71,65.75 L 310.65 68.00 L 202.33 68.00 L 94.00 68.00 L 94.00 76.50 L 94.00 85.00 L 200.53 85.00 C317.31,85.00 312.41,84.75 314.95,90.88 C316.46,94.52 315.01,99.39 311.93,101.04 C310.81,101.64 267.02,102.00 195.64,102.00 L 81.15 102.00 L 79.07 99.37 Z" fill="rgba(67,102,195,1)"/>
</g>
</svg>