<svg xmlns="http://www.w3.org/2000/svg" width="512" height="512" viewBox="0 0 512 512">
<g>
<path d="M 0.00 16.54 C0.00,32.67 0.05,33.05 1.97,32.02 C3.40,31.25 3.90,30.01 3.81,27.49 C3.73,25.49 4.38,23.23 5.34,22.18 C6.25,21.17 7.00,19.64 7.00,18.78 C7.00,17.08 9.92,15.45 10.12,17.03 C10.19,17.56 10.36,18.45 10.50,19.00 C10.64,19.55 10.81,20.34 10.89,20.75 C10.97,21.16 11.45,20.84 11.96,20.03 C12.51,19.16 12.52,18.13 11.98,17.48 C10.39,15.56 12.03,12.23 14.84,11.69 C16.30,11.41 17.73,11.57 18.02,12.04 C18.31,12.51 19.22,12.48 20.03,11.96 C20.84,11.45 21.16,10.97 20.75,10.89 C20.34,10.81 19.55,10.64 19.00,10.50 C18.45,10.36 17.56,10.19 17.03,10.12 C15.33,9.91 17.14,7.00 18.98,7.00 C19.96,7.00 21.32,6.32 22.00,5.50 C22.75,4.60 24.94,4.00 27.51,4.00 C30.93,4.00 31.87,3.61 32.29,2.00 C32.80,0.06 32.32,0.00 16.41,0.00 L 495.46 0.00 C478.96,0.00 478.93,0.00 480.06,2.11 C480.93,3.74 481.81,4.09 484.01,3.65 C485.96,3.26 487.61,3.69 489.33,5.04 C490.70,6.12 492.57,7.00 493.50,7.00 C494.43,7.00 495.40,7.81 495.66,8.79 C495.91,9.77 497.09,11.01 498.28,11.54 C499.46,12.07 500.67,13.54 500.97,14.81 C501.26,16.08 501.84,17.09 502.25,17.06 C504.52,16.88 505.00,17.15 505.00,18.59 C505.00,19.47 505.88,21.31 506.96,22.67 C508.36,24.46 508.75,26.02 508.31,28.18 C507.91,30.22 508.16,31.49 509.10,32.09 C509.87,32.57 510.84,32.98 511.25,32.98 C511.66,32.99 512.00,25.58 512.00,16.50 L 512.00 496.00 C512.00,482.67 511.76,480.00 510.55,480.00 C509.65,480.00 508.84,481.44 508.43,483.75 C507.75,487.64 505.96,491.05 502.84,494.40 C501.84,495.47 500.78,497.12 500.48,498.07 C499.89,499.91 494.85,501.38 493.98,499.96 C493.69,499.49 492.78,499.52 491.97,500.04 C491.16,500.55 490.84,501.03 491.25,501.11 C491.66,501.19 492.45,501.36 493.00,501.50 C493.55,501.64 494.44,501.81 494.97,501.88 C496.67,502.09 494.86,505.00 493.02,505.00 C492.04,505.00 490.68,505.67 490.00,506.50 C489.25,507.40 487.07,508.00 484.54,508.00 C479.87,508.00 478.88,508.53 479.68,510.60 C480.11,511.72 483.39,512.00 496.11,512.00 L 16.00 512.00 C31.31,512.00 32.00,511.91 32.00,510.01 C32.00,508.32 31.38,508.04 28.01,508.17 C25.51,508.27 23.33,507.71 22.18,506.66 C21.17,505.75 19.59,505.00 18.67,505.00 C16.48,505.00 16.32,501.66 18.50,501.37 C19.05,501.29 19.95,501.17 20.50,501.10 C21.05,501.03 20.84,500.55 20.03,500.04 C19.18,499.50 18.12,499.48 17.50,500.00 C16.40,500.92 13.48,500.82 12.50,499.83 C11.45,498.79 11.12,495.05 12.02,494.49 C12.51,494.18 12.66,493.28 12.35,492.47 C12.04,491.67 11.38,491.26 10.88,491.57 C10.38,491.88 10.17,492.47 10.42,492.87 C10.67,493.27 10.50,494.19 10.05,494.93 C9.03,496.57 7.00,495.46 7.00,493.27 C7.00,492.38 6.25,490.83 5.34,489.82 C4.34,488.72 3.73,486.50 3.82,484.29 C3.94,480.96 2.84,479.06 0.75,479.02 C0.34,479.01 0.00,486.42 0.00,495.50 ZM 201.79 511.18 C204.16,512.12 309.22,512.15 310.70,511.21 C313.08,509.69 307.52,505.48 304.61,506.59 C302.45,507.42 296.25,505.19 294.74,503.04 C294.05,502.05 292.58,501.06 291.49,500.85 C290.25,500.61 289.50,499.66 289.50,498.34 C289.50,497.13 287.52,494.29 284.91,491.75 C280.90,487.85 280.23,486.58 279.65,481.89 C278.54,472.80 279.51,376.93 280.75,373.00 C281.36,371.08 282.36,367.59 282.97,365.25 C283.65,362.66 285.05,360.36 286.54,359.38 C287.89,358.49 289.00,357.16 289.00,356.41 C289.00,355.66 290.24,354.26 291.75,353.30 C293.26,352.34 294.86,350.97 295.30,350.27 C296.51,348.35 301.58,346.00 304.19,346.14 C305.46,346.22 307.76,345.77 309.29,345.15 C312.23,343.96 482.36,343.42 486.63,344.59 C487.80,344.91 489.32,346.23 490.02,347.54 C490.72,348.84 491.64,349.81 492.07,349.70 C492.51,349.59 493.49,350.35 494.26,351.38 C495.03,352.41 496.74,353.31 498.07,353.38 C499.63,353.46 500.61,354.20 500.85,355.50 C501.05,356.60 501.85,357.86 502.61,358.30 C504.96,359.65 507.06,364.80 506.52,367.86 C505.91,371.37 509.69,377.10 511.12,374.83 C512.23,373.09 512.23,266.91 511.12,265.17 C509.69,262.90 505.91,268.63 506.52,272.14 C507.09,275.32 504.91,280.44 502.61,281.32 C501.81,281.63 501.01,282.92 500.83,284.19 C500.61,285.76 499.80,286.54 498.31,286.61 C497.10,286.67 494.40,288.50 492.31,290.67 C490.21,292.84 487.68,294.92 486.68,295.30 C483.38,296.55 316.71,296.21 309.78,294.94 C306.32,294.31 302.47,293.60 301.21,293.37 C299.95,293.13 297.54,291.62 295.84,290.00 C294.15,288.38 291.92,286.79 290.88,286.46 C289.85,286.13 289.00,285.29 289.00,284.58 C289.00,283.87 287.68,281.91 286.06,280.22 C284.35,278.43 282.85,275.54 282.48,273.32 C282.13,271.22 281.32,268.15 280.68,266.50 C279.40,263.20 278.43,40.21 279.66,30.12 C280.23,25.40 280.90,24.15 285.10,20.00 C288.72,16.41 289.75,14.75 289.32,13.13 C288.86,11.37 289.21,11.00 291.28,11.00 C292.66,11.00 294.05,10.30 294.38,9.45 C295.16,7.43 301.07,5.00 305.25,5.00 C308.58,5.00 313.00,2.69 313.00,0.94 C313.00,-0.25 203.04,-0.31 201.17,0.88 C199.08,2.20 204.78,6.27 207.70,5.54 C210.49,4.84 216.81,7.33 217.62,9.45 C217.95,10.30 219.07,11.00 220.11,11.00 C221.40,11.00 222.00,11.71 222.00,13.23 C222.00,14.59 223.78,17.12 226.56,19.71 C230.70,23.56 231.22,24.58 232.14,30.50 C233.70,40.51 232.88,134.84 231.21,137.77 C230.50,139.01 229.73,141.82 229.50,144.00 C229.00,148.79 227.60,151.61 225.05,152.97 C224.00,153.54 223.00,155.00 222.82,156.24 C222.63,157.54 221.66,158.64 220.50,158.85 C219.40,159.06 217.36,160.58 215.97,162.23 C214.06,164.50 212.47,165.30 209.47,165.50 C207.29,165.65 204.25,166.26 202.72,166.87 C199.70,168.07 30.26,168.60 25.58,167.43 C24.20,167.08 22.80,165.94 22.46,164.89 C22.13,163.83 21.47,163.21 21.01,163.50 C20.54,163.78 19.18,162.78 17.98,161.26 C16.79,159.74 14.84,158.50 13.65,158.50 C12.18,158.50 11.40,157.79 11.18,156.25 C11.00,155.01 10.44,154.00 9.92,154.00 C8.11,154.00 5.23,147.83 5.18,143.85 C5.12,139.84 2.82,135.00 0.98,135.00 C0.35,135.00 0.00,155.56 0.00,192.00 C0.00,227.05 0.36,249.00 0.94,249.00 C2.83,249.00 5.00,244.46 5.00,240.53 C5.01,236.55 8.06,230.00 9.92,230.00 C10.44,230.00 11.00,228.99 11.18,227.75 C11.39,226.24 12.22,225.46 13.69,225.39 C14.90,225.33 17.79,223.30 20.11,220.89 L 24.32 216.50 L 110.91 216.19 C173.13,215.97 199.05,216.21 203.00,217.03 C206.02,217.66 209.55,218.38 210.84,218.63 C212.12,218.88 214.31,220.22 215.70,221.61 C217.09,223.00 219.30,224.54 220.61,225.04 C221.93,225.54 223.00,226.61 223.00,227.42 C223.00,228.24 224.34,230.16 225.98,231.70 C228.08,233.67 229.09,235.69 229.38,238.50 C229.61,240.70 230.40,243.85 231.15,245.50 C232.25,247.95 232.55,269.19 232.79,361.99 C232.97,434.04 232.72,477.83 232.08,481.90 C231.20,487.55 230.59,488.76 226.90,492.20 C224.60,494.35 222.67,497.09 222.61,498.30 C222.54,499.78 221.76,500.61 220.25,500.82 C219.01,501.00 217.55,501.97 217.01,502.99 C215.86,505.13 209.64,507.46 207.39,506.59 C205.75,505.97 201.97,507.58 200.79,509.40 C200.39,510.01 200.84,510.80 201.79,511.18 ZM 317.30 268.67 C317.80,269.48 468.77,269.55 476.25,268.74 C478.31,268.52 480.22,268.11 480.50,267.84 C481.01,267.33 481.29,31.94 480.78,31.47 C480.03,30.77 462.27,30.65 388.73,30.82 L 308.95 31.00 L 307.90 33.75 C307.18,35.63 306.88,72.66 306.96,150.43 L 307.08 264.36 L 309.45 266.72 C311.19,268.46 312.47,268.92 314.30,268.46 C315.66,268.12 317.01,268.21 317.30,268.67 ZM 36.76 481.25 C39.92,481.45 43.10,481.47 43.83,481.30 C44.56,481.14 80.66,481.00 124.05,481.00 C202.68,481.00 202.93,480.99 204.03,478.94 C205.19,476.78 205.59,254.76 204.44,252.90 C204.13,252.40 204.16,251.06 204.52,249.94 C204.97,248.52 204.43,247.16 202.74,245.46 L 200.30 243.03 L 118.40 243.00 C73.36,242.99 35.60,243.09 34.50,243.24 C33.40,243.38 32.05,244.46 31.50,245.63 C30.85,247.02 30.59,288.15 30.76,364.33 L 31.02 480.90 ZM 39.63 141.30 C39.74,141.41 75.98,141.38 120.15,141.23 L 200.47 140.96 L 202.75 138.31 C204.14,136.70 204.80,134.95 204.45,133.84 C204.13,132.84 204.13,131.59 204.46,131.07 C205.58,129.25 205.27,36.65 204.14,33.76 L 203.06 31.02 L 123.28 30.76 C79.40,30.62 40.70,30.65 37.27,30.84 L 31.03 31.18 L 30.77 83.53 C30.62,112.33 30.73,136.88 31.02,138.09 C31.42,139.80 32.42,140.38 35.49,140.70 C37.66,140.92 39.52,141.19 39.63,141.30 ZM 388.72 481.24 C459.94,481.47 479.78,481.31 480.81,480.47 C481.50,479.90 480.95,373.75 480.25,372.67 C479.84,372.03 478.60,371.38 477.50,371.24 C473.41,370.71 317.77,371.02 316.89,371.57 C316.39,371.88 315.06,371.84 313.94,371.48 C312.52,371.03 311.17,371.56 309.52,373.20 L 307.15 375.57 L 306.95 425.54 C306.81,460.00 307.09,476.35 307.85,478.24 L 308.95 480.99 ZM 499.80 492.38 C500.65,493.94 502.03,490.23 501.30,488.34 C500.68,486.73 500.51,486.81 499.95,489.00 C499.60,490.38 499.53,491.90 499.80,492.38 Z" fill="rgb(68,102,196)"/>
<path d="M 317.30 268.67 C317.01,268.21 315.66,268.12 314.30,268.46 C312.47,268.92 311.19,268.46 309.45,266.72 L 307.08 264.36 L 306.96 150.43 C306.88,72.66 307.18,35.63 307.90,33.75 L 308.95 31.00 L 388.73 30.82 C462.27,30.65 480.03,30.77 480.78,31.47 C481.29,31.94 481.01,267.33 480.50,267.84 C480.22,268.11 478.31,268.52 476.25,268.74 C468.77,269.55 317.80,269.48 317.30,268.67 ZM 36.76 481.25 L 31.02 480.90 L 30.76 364.33 C30.59,288.15 30.85,247.02 31.50,245.63 C32.05,244.46 33.40,243.38 34.50,243.24 C35.60,243.09 73.36,242.99 118.40,243.00 L 200.30 243.03 L 202.74 245.46 C204.43,247.16 204.97,248.52 204.52,249.94 C204.16,251.06 204.13,252.40 204.44,252.90 C205.59,254.76 205.19,476.78 204.03,478.94 C202.93,480.99 202.68,481.00 124.05,481.00 C80.66,481.00 44.56,481.14 43.83,481.30 C43.10,481.47 39.92,481.45 36.76,481.25 ZM 311.45 264.55 L 313.91 267.00 L 395.38 267.00 C468.12,267.00 477.03,266.83 478.43,265.43 C479.84,264.02 480.00,252.13 480.00,149.50 C480.00,46.87 479.84,34.98 478.43,33.57 C477.03,32.17 468.04,32.00 394.49,32.00 L 312.11 32.00 L 310.56 34.22 C309.17,36.20 309.00,48.77 309.00,149.27 L 309.00 262.09 ZM 33.65 478.17 C35.23,479.91 39.15,480.00 117.58,480.00 C191.04,480.00 200.03,479.83 201.43,478.43 C202.84,477.02 203.00,465.17 203.00,362.93 C203.00,250.33 202.98,248.98 201.00,247.00 C199.03,245.03 197.67,245.00 117.72,245.00 C45.78,245.00 36.19,245.18 34.22,246.56 L 32.00 248.11 L 32.00 362.23 C32.00,467.01 32.14,476.49 33.65,478.17 ZM 39.63 141.30 C39.52,141.19 37.66,140.92 35.49,140.70 C32.42,140.38 31.42,139.80 31.02,138.09 C30.73,136.88 30.62,112.33 30.77,83.53 L 31.03 31.18 L 37.27 30.84 C40.70,30.65 79.40,30.62 123.28,30.76 L 203.06 31.02 L 204.14 33.76 C205.27,36.65 205.58,129.25 204.46,131.07 C204.13,131.59 204.13,132.84 204.45,133.84 C204.80,134.95 204.14,136.70 202.75,138.31 L 200.47 140.96 L 120.15 141.23 C75.98,141.38 39.74,141.41 39.63,141.30 ZM 388.72 481.24 L 308.95 480.99 L 307.85 478.24 C307.09,476.35 306.81,460.00 306.95,425.54 L 307.15 375.57 L 309.52 373.20 C311.17,371.56 312.52,371.03 313.94,371.48 C315.06,371.84 316.39,371.88 316.89,371.57 C317.77,371.02 473.41,370.71 477.50,371.24 C478.60,371.38 479.84,372.03 480.25,372.67 C480.95,373.75 481.50,479.90 480.81,480.47 C479.78,481.31 459.94,481.47 388.72,481.24 ZM 310.56 477.78 L 312.11 480.00 L 394.49 480.00 C468.04,480.00 477.03,479.83 478.43,478.43 C479.82,477.04 480.00,470.95 480.00,426.50 C480.00,382.05 479.82,375.96 478.43,374.57 C477.03,373.17 468.12,373.00 395.38,373.00 L 313.91 373.00 L 311.45 375.45 L 309.00 377.91 L 309.00 426.73 C309.00,469.30 309.20,475.84 310.56,477.78 ZM 34.00 137.00 C35.97,138.97 37.33,139.00 117.50,139.00 C198.02,139.00 199.02,138.98 201.03,136.97 C203.02,134.98 203.05,134.02 202.78,84.44 C202.54,40.83 202.29,33.80 201.00,32.98 C200.09,32.40 167.43,32.02 117.58,32.02 C42.74,32.00 35.50,32.14 33.83,33.65 C32.10,35.22 32.00,38.14 32.00,85.15 C32.00,133.67 32.05,135.05 34.00,137.00 ZM 201.79 511.18 C200.84,510.80 200.39,510.01 200.79,509.40 C201.97,507.58 205.75,505.97 207.39,506.59 C209.64,507.46 215.86,505.13 217.01,502.99 C217.55,501.97 219.01,501.00 220.25,500.82 C221.76,500.61 222.54,499.78 222.61,498.30 C222.67,497.09 224.60,494.35 226.90,492.20 C230.59,488.76 231.20,487.55 232.08,481.90 C232.72,477.83 232.97,434.04 232.79,361.99 C232.55,269.19 232.25,247.95 231.15,245.50 C230.40,243.85 229.61,240.70 229.38,238.50 C229.09,235.69 228.08,233.67 225.98,231.70 C224.34,230.16 223.00,228.24 223.00,227.42 C223.00,226.61 221.93,225.54 220.61,225.04 C219.30,224.54 217.09,223.00 215.70,221.61 C214.31,220.22 212.12,218.88 210.84,218.63 C209.55,218.38 206.02,217.66 203.00,217.03 C199.05,216.21 173.13,215.97 110.91,216.19 L 24.32 216.50 L 20.11 220.89 C17.79,223.30 14.90,225.33 13.69,225.39 C12.22,225.46 11.39,226.24 11.18,227.75 C11.00,228.99 10.44,230.00 9.92,230.00 C8.06,230.00 5.01,236.55 5.00,240.53 C5.00,244.46 2.83,249.00 0.94,249.00 C0.36,249.00 0.00,227.05 0.00,192.00 C0.00,155.56 0.35,135.00 0.98,135.00 C2.82,135.00 5.12,139.84 5.18,143.85 C5.23,147.83 8.11,154.00 9.92,154.00 C10.44,154.00 11.00,155.01 11.18,156.25 C11.40,157.79 12.18,158.50 13.65,158.50 C14.84,158.50 16.79,159.74 17.98,161.26 C19.18,162.78 20.54,163.78 21.01,163.50 C21.47,163.21 22.13,163.83 22.46,164.89 C22.80,165.94 24.20,167.08 25.58,167.43 C30.26,168.60 199.70,168.07 202.72,166.87 C204.25,166.26 207.29,165.65 209.47,165.50 C212.47,165.30 214.06,164.50 215.97,162.23 C217.36,160.58 219.40,159.06 220.50,158.85 C221.66,158.64 222.63,157.54 222.82,156.24 C223.00,155.00 224.00,153.54 225.05,152.97 C227.60,151.61 229.00,148.79 229.50,144.00 C229.73,141.82 230.50,139.01 231.21,137.77 C232.88,134.84 233.70,40.51 232.14,30.50 C231.22,24.58 230.70,23.56 226.56,19.71 C223.78,17.12 222.00,14.59 222.00,13.23 C222.00,11.71 221.40,11.00 220.11,11.00 C219.07,11.00 217.95,10.30 217.62,9.45 C216.81,7.33 210.49,4.84 207.70,5.54 C204.78,6.27 199.08,2.20 201.17,0.88 C203.04,-0.31 313.00,-0.25 313.00,0.94 C313.00,2.69 308.58,5.00 305.25,5.00 C301.07,5.00 295.16,7.43 294.38,9.45 C294.05,10.30 292.66,11.00 291.28,11.00 C289.21,11.00 288.86,11.37 289.32,13.13 C289.75,14.75 288.72,16.41 285.10,20.00 C280.90,24.15 280.23,25.40 279.66,30.12 C278.43,40.21 279.40,263.20 280.68,266.50 C281.32,268.15 282.13,271.22 282.48,273.32 C282.85,275.54 284.35,278.43 286.06,280.22 C287.68,281.91 289.00,283.87 289.00,284.58 C289.00,285.29 289.85,286.13 290.88,286.46 C291.92,286.79 294.15,288.38 295.84,290.00 C297.54,291.62 299.95,293.13 301.21,293.37 C302.47,293.60 306.32,294.31 309.78,294.94 C316.71,296.21 483.38,296.55 486.68,295.30 C487.68,294.92 490.21,292.84 492.31,290.67 C494.40,288.50 497.10,286.67 498.31,286.61 C499.80,286.54 500.61,285.76 500.83,284.19 C501.01,282.92 501.81,281.63 502.61,281.32 C504.91,280.44 507.09,275.32 506.52,272.14 C505.91,268.63 509.69,262.90 511.12,265.17 C512.23,266.91 512.23,373.09 511.12,374.83 C509.69,377.10 505.91,371.37 506.52,367.86 C507.06,364.80 504.96,359.65 502.61,358.30 C501.85,357.86 501.05,356.60 500.85,355.50 C500.61,354.20 499.63,353.46 498.07,353.38 C496.74,353.31 495.03,352.41 494.26,351.38 C493.49,350.35 492.51,349.59 492.07,349.70 C491.64,349.81 490.72,348.84 490.02,347.54 C489.32,346.23 487.80,344.91 486.63,344.59 C482.36,343.42 312.23,343.96 309.29,345.15 C307.76,345.77 305.46,346.22 304.19,346.14 C301.58,346.00 296.51,348.35 295.30,350.27 C294.86,350.97 293.26,352.34 291.75,353.30 C290.24,354.26 289.00,355.66 289.00,356.41 C289.00,357.16 287.89,358.49 286.54,359.38 C285.05,360.36 283.65,362.66 282.97,365.25 C282.36,367.59 281.36,371.08 280.75,373.00 C279.51,376.93 278.54,472.80 279.65,481.89 C280.23,486.58 280.90,487.85 284.91,491.75 C287.52,494.29 289.50,497.13 289.50,498.34 C289.50,499.66 290.25,500.61 291.49,500.85 C292.58,501.06 294.05,502.05 294.74,503.04 C296.25,505.19 302.45,507.42 304.61,506.59 C307.52,505.48 313.08,509.69 310.70,511.21 C310.49,511.34 308.18,511.46 304.37,511.55 C307.43,511.30 306.47,510.89 304.49,510.20 C293.34,506.35 286.32,500.34 280.87,490.00 L 278.50 485.50 L 278.50 368.50 L 281.11 363.00 C284.47,355.93 292.02,348.37 299.00,345.09 L 304.50 342.50 L 486.50 342.50 L 490.85 344.82 C499.94,349.67 507.57,358.77 510.55,368.29 C511.68,371.89 511.87,364.89 511.87,320.00 C511.87,275.11 511.68,268.11 510.55,271.71 C507.62,281.09 499.78,290.52 491.32,294.83 C483.24,298.96 479.22,299.12 391.50,298.80 L 307.50 298.50 L 301.84 296.21 C291.77,292.14 283.64,284.00 280.05,274.41 C277.98,268.87 277.97,268.30 278.23,147.67 L 278.50 26.50 L 281.16 21.50 C286.66,11.16 296.14,3.57 306.62,1.11 C309.11,0.53 290.95,0.20 256.00,0.21 C224.89,0.22 203.28,0.57 205.64,1.04 C216.42,3.17 227.80,12.92 232.18,23.75 C234.49,29.48 234.50,29.70 234.78,82.48 C234.96,115.80 234.69,137.22 234.05,140.21 C231.45,152.33 222.13,163.79 211.33,168.15 L 205.50 170.50 L 30.50 170.50 L 24.66 168.14 C13.27,163.55 4.52,153.75 1.37,142.06 C0.35,138.30 0.14,147.08 0.16,192.00 C0.18,237.85 0.38,245.77 1.45,241.89 C4.50,230.84 11.10,222.69 21.50,217.16 L 26.50 214.50 L 117.50 214.50 C208.34,214.50 208.51,214.50 213.12,216.64 C218.98,219.34 225.00,224.77 228.89,230.84 C229.68,232.06 230.36,233.06 230.96,234.10 C235.05,241.27 235.03,250.78 234.80,351.85 C234.79,356.10 234.78,360.51 234.77,365.09 L 234.50 482.50 L 232.20 488.20 C228.13,498.25 218.28,507.25 207.71,510.55 C205.94,511.10 206.75,511.43 213.42,511.63 C206.64,511.51 202.25,511.36 201.79,511.18 ZM 0.00 16.54 L 0.00 0.00 L 16.41 0.00 C32.32,0.00 32.80,0.06 32.29,2.00 C31.87,3.61 30.93,4.00 27.51,4.00 C24.94,4.00 22.75,4.60 22.00,5.50 C21.32,6.32 19.96,7.00 18.98,7.00 C17.14,7.00 15.33,9.91 17.03,10.12 C17.56,10.19 18.45,10.36 19.00,10.50 C19.55,10.64 20.34,10.81 20.75,10.89 C21.16,10.97 20.84,11.45 20.03,11.96 C19.22,12.48 18.31,12.51 18.02,12.04 C17.73,11.57 16.30,11.41 14.84,11.69 C12.03,12.23 10.39,15.56 11.98,17.48 C12.52,18.13 12.51,19.16 11.96,20.03 C11.45,20.84 10.97,21.16 10.89,20.75 C10.81,20.34 10.64,19.55 10.50,19.00 C10.36,18.45 10.19,17.56 10.12,17.03 C9.92,15.45 7.00,17.08 7.00,18.78 C7.00,19.64 6.25,21.17 5.34,22.18 C4.38,23.23 3.73,25.49 3.81,27.49 C3.90,30.01 3.40,31.25 1.97,32.02 C0.05,33.05 0.00,32.67 0.00,16.54 ZM 479.68 510.60 C478.88,508.53 479.87,508.00 484.54,508.00 C487.07,508.00 489.25,507.40 490.00,506.50 C490.68,505.67 492.04,505.00 493.02,505.00 C494.86,505.00 496.67,502.09 494.97,501.88 C494.44,501.81 493.55,501.64 493.00,501.50 C492.45,501.36 491.66,501.19 491.25,501.11 C490.84,501.03 491.16,500.55 491.97,500.04 C492.78,499.52 493.69,499.49 493.98,499.96 C494.85,501.38 499.89,499.91 500.48,498.07 C500.78,497.12 501.84,495.47 502.84,494.40 C505.96,491.05 507.75,487.64 508.43,483.75 C508.84,481.44 509.65,480.00 510.55,480.00 C511.76,480.00 512.00,482.67 512.00,496.00 L 512.00 512.00 L 496.11 512.00 C483.39,512.00 480.11,511.72 479.68,510.60 ZM 0.00 0.00 L 0.09 16.75 C0.16,32.17 0.27,33.10 1.41,28.50 C3.05,21.84 5.33,17.68 10.28,12.31 C15.31,6.85 21.62,3.05 28.38,1.41 C33.12,0.26 32.27,0.16 16.75,0.09 L 0.00 0.00 ZM 512.00 512.00 L 511.90 496.25 C511.84,487.00 511.49,481.79 511.05,483.62 C508.06,496.13 496.12,508.06 483.56,511.06 C481.81,511.48 487.24,511.84 496.25,511.90 L 512.00 512.00 ZM 0.30 482.40 C0.42,480.28 0.58,479.01 0.75,479.02 C2.84,479.06 3.94,480.96 3.82,484.29 C3.73,486.50 4.34,488.72 5.34,489.82 C6.25,490.83 7.00,492.38 7.00,493.27 C7.00,495.46 9.03,496.57 10.05,494.93 C10.50,494.19 10.67,493.27 10.42,492.87 C10.17,492.47 10.38,491.88 10.88,491.57 C11.38,491.26 12.04,491.67 12.35,492.47 C12.66,493.28 12.51,494.18 12.02,494.49 C11.12,495.05 11.45,498.79 12.50,499.83 C13.48,500.82 16.40,500.92 17.50,500.00 C18.12,499.48 19.18,499.50 20.03,500.04 C20.84,500.55 21.05,501.03 20.50,501.10 C19.95,501.17 19.05,501.29 18.50,501.37 C16.32,501.66 16.48,505.00 18.67,505.00 C19.59,505.00 21.17,505.75 22.18,506.66 C23.33,507.71 25.51,508.27 28.01,508.17 C31.38,508.04 32.00,508.32 32.00,510.01 C32.00,511.91 31.31,512.00 16.00,512.00 L 0.00 512.00 L 0.00 495.50 C0.00,490.83 0.09,486.59 0.23,483.58 C0.15,485.77 0.11,489.51 0.09,495.25 L 0.00 512.00 L 16.25 511.90 C28.05,511.83 31.47,511.56 28.73,510.91 C16.06,507.93 4.51,496.38 1.41,483.62 C0.78,481.00 0.46,480.09 0.30,482.40 ZM 509.10 32.09 C508.16,31.49 507.91,30.22 508.31,28.18 C508.75,26.02 508.36,24.46 506.96,22.67 C505.88,21.31 505.00,19.47 505.00,18.59 C505.00,17.15 504.52,16.88 502.25,17.06 C501.84,17.09 501.26,16.08 500.97,14.81 C500.67,13.54 499.46,12.07 498.28,11.54 C497.09,11.01 495.91,9.77 495.66,8.79 C495.40,7.81 494.43,7.00 493.50,7.00 C492.57,7.00 490.70,6.12 489.33,5.04 C487.61,3.69 485.96,3.26 484.01,3.65 C481.81,4.09 480.93,3.74 480.06,2.11 C478.93,0.00 478.96,0.00 495.46,0.00 L 512.00 0.00 L 495.25 0.11 C482.95,0.19 479.66,0.45 482.87,1.08 C489.50,2.38 496.00,5.92 501.07,10.98 C505.71,15.61 511.00,25.18 511.00,28.94 C511.00,30.07 511.23,31.00 511.50,31.00 C511.57,31.00 511.63,30.58 511.69,29.81 C511.57,31.81 511.41,32.99 511.25,32.98 C510.84,32.98 509.87,32.57 509.10,32.09 ZM 499.80 492.38 C499.53,491.90 499.60,490.38 499.95,489.00 C500.51,486.81 500.68,486.73 501.30,488.34 C502.03,490.23 500.65,493.94 499.80,492.38 ZM 511.92 23.96 C511.97,21.53 512.00,18.62 512.00,15.50 L 512.00 16.50 C512.00,19.18 511.97,21.72 511.92,23.96 Z" fill="rgb(73,101,189)"/>
<path d="M 482.41 0.47 L 486.71 2.00 C497.08,5.69 504.75,12.82 509.11,22.83 C509.21,23.06 509.31,23.29 509.40,23.52 C507.48,19.25 504.13,14.04 501.07,10.98 C496.00,5.92 489.50,2.38 482.87,1.08 C481.54,0.82 481.32,0.62 482.41,0.47 ZM 19.27 0.10 C32.35,0.18 32.85,0.33 28.38,1.41 C27.34,1.66 26.31,1.97 25.30,2.32 C26.17,1.93 27.07,1.55 28.00,1.16 C29.64,0.49 27.44,0.20 19.27,0.10 ZM 23.60 167.70 C16.02,164.44 10.70,160.04 6.52,153.37 C10.68,159.59 16.61,164.64 23.60,167.70 ZM 281.16 21.50 L 278.50 26.50 L 280.87 22.00 C284.58,14.95 288.42,10.40 294.18,6.74 C288.89,10.43 284.35,15.50 281.16,21.50 ZM 0.23 222.30 C0.39,236.88 0.69,243.13 1.14,242.00 C1.49,241.12 1.85,240.27 2.20,239.45 C1.93,240.25 1.68,241.06 1.45,241.89 C0.68,244.68 0.36,241.38 0.23,222.30 ZM 13.48 9.21 C12.36,10.18 11.29,11.21 10.28,12.31 C8.06,14.72 6.38,16.88 5.05,19.14 C7.20,15.26 9.92,12.04 13.48,9.21 ZM 2.69 24.20 C2.21,25.53 1.79,26.95 1.41,28.50 C0.92,30.48 0.62,31.44 0.43,30.65 L 1.86 26.45 C2.13,25.68 2.40,24.93 2.69,24.20 ZM 0.43 481.34 C0.61,480.56 0.91,481.57 1.41,483.62 C1.95,485.83 2.74,488.02 3.75,490.12 C3.03,488.64 2.40,487.12 1.86,485.55 ZM 216.71 5.70 C223.65,10.08 229.25,16.50 232.18,23.75 C229.31,16.66 223.44,10.03 216.71,5.70 ZM 7.12 495.79 C12.40,503.17 20.32,508.93 28.73,510.91 C20.24,508.91 12.46,503.33 7.12,495.79 ZM 205.64 1.04 C205.11,0.93 205.81,0.83 207.58,0.74 C206.53,0.91 206.64,1.13 207.50,1.40 C208.41,1.69 209.30,2.01 210.18,2.36 C208.67,1.79 207.15,1.34 205.64,1.04 ZM 2.16 144.63 L 0.86 141.47 C1.00,141.07 1.17,141.33 1.37,142.06 C1.60,142.93 1.86,143.78 2.16,144.63 ZM 10.99 224.91 C13.84,221.85 17.20,219.45 21.50,217.16 C17.42,219.34 13.91,221.91 10.99,224.91 ZM 304.59 1.66 L 306.47 0.88 C306.91,0.95 306.96,1.03 306.62,1.11 C305.94,1.27 305.26,1.45 304.59,1.66 Z" fill="rgb(129,149,203)"/>
<path d="M 0.07 496.25 L 0.14 480.50 L 1.86 485.55 C6.15,498.10 16.72,508.08 28.73,510.91 C31.47,511.56 28.05,511.83 16.25,511.90 L 0.00 512.00 L 0.07 496.25 ZM 207.71 510.55 C218.28,507.25 228.13,498.25 232.20,488.20 L 234.50 482.50 L 234.77 365.09 C235.06,235.69 235.28,240.79 228.89,230.84 C225.00,224.77 218.98,219.34 213.12,216.64 C208.51,214.50 208.34,214.50 117.50,214.50 L 26.50 214.50 L 21.50 217.16 C11.46,222.51 6.58,228.45 1.14,242.00 C0.45,243.72 0.12,228.19 0.09,192.00 L 0.05 139.50 L 2.35 145.11 C7.29,157.11 13.71,163.72 24.75,168.18 L 30.50 170.50 L 118.00 170.50 L 205.50 170.50 L 211.33 168.15 C222.13,163.79 231.45,152.33 234.05,140.21 C234.69,137.22 234.96,115.80 234.78,82.48 C234.50,29.70 234.49,29.48 232.18,23.75 C228.04,13.50 218.55,4.91 207.50,1.40 C204.16,0.34 212.11,0.13 256.00,0.09 L 308.50 0.05 L 302.89 2.35 C291.76,6.94 286.19,11.90 280.87,22.00 L 278.50 26.50 L 278.23 147.67 C277.97,268.30 277.98,268.87 280.05,274.41 C283.64,284.00 291.77,292.14 301.84,296.21 L 307.50 298.50 L 391.50 298.80 C479.22,299.12 483.24,298.96 491.32,294.83 C499.78,290.52 507.62,281.09 510.55,271.71 C511.68,268.11 511.87,275.11 511.87,320.00 C511.87,364.89 511.68,371.89 510.55,368.29 C507.57,358.77 499.94,349.67 490.85,344.82 L 486.50 342.50 L 395.50 342.50 L 304.50 342.50 L 299.00 345.09 C292.02,348.37 284.47,355.93 281.11,363.00 L 278.50 368.50 L 278.50 427.00 L 278.50 485.50 L 280.87 490.00 C286.32,500.34 293.34,506.35 304.49,510.20 C309.36,511.89 308.02,511.93 256.50,511.90 C211.16,511.87 204.11,511.68 207.71,510.55 ZM 483.56 511.06 C496.12,508.06 508.06,496.13 511.05,483.62 C511.49,481.79 511.84,487.00 511.90,496.25 L 512.00 512.00 L 496.25 511.90 C487.24,511.84 481.81,511.48 483.56,511.06 ZM 33.65 478.17 C32.14,476.49 32.00,467.01 32.00,362.23 L 32.00 248.11 L 34.22 246.56 C36.19,245.18 45.78,245.00 117.72,245.00 C197.67,245.00 199.03,245.03 201.00,247.00 C202.98,248.98 203.00,250.33 203.00,362.93 C203.00,465.17 202.84,477.02 201.43,478.43 C200.03,479.83 191.04,480.00 117.58,480.00 C39.15,480.00 35.23,479.91 33.65,478.17 ZM 310.56 477.78 C309.20,475.84 309.00,469.30 309.00,426.73 L 309.00 377.91 L 311.45 375.45 L 313.91 373.00 L 395.38 373.00 C468.12,373.00 477.03,373.17 478.43,374.57 C479.82,375.96 480.00,382.05 480.00,426.50 C480.00,470.95 479.82,477.04 478.43,478.43 C477.03,479.83 468.04,480.00 394.49,480.00 L 312.11 480.00 L 310.56 477.78 ZM 311.45 264.55 L 309.00 262.09 L 309.00 149.27 C309.00,48.77 309.17,36.20 310.56,34.22 L 312.11 32.00 L 394.49 32.00 C468.04,32.00 477.03,32.17 478.43,33.57 C479.84,34.98 480.00,46.87 480.00,149.50 C480.00,252.13 479.84,264.02 478.43,265.43 C477.03,266.83 468.12,267.00 395.38,267.00 L 313.91 267.00 L 311.45 264.55 ZM 34.00 137.00 C32.05,135.05 32.00,133.67 32.00,85.15 C32.00,38.14 32.10,35.22 33.83,33.65 C35.50,32.14 42.74,32.00 117.58,32.02 C167.43,32.02 200.09,32.40 201.00,32.98 C202.29,33.80 202.54,40.83 202.78,84.44 C203.05,134.02 203.02,134.98 201.03,136.97 C199.02,138.98 198.02,139.00 117.50,139.00 C37.33,139.00 35.97,138.97 34.00,137.00 ZM 0.07 15.75 L 0.00 0.00 L 15.25 0.07 C26.70,0.12 29.88,0.39 28.00,1.16 C13.05,7.31 6.10,14.03 1.86,26.45 L 0.14 31.50 L 0.07 15.75 ZM 511.00 29.08 C511.00,28.03 510.15,25.22 509.11,22.83 C504.75,12.82 497.08,5.69 486.71,2.00 L 481.50 0.15 L 496.75 0.07 L 512.00 0.00 L 512.00 15.50 C512.00,24.02 511.77,31.00 511.50,31.00 C511.23,31.00 511.00,30.14 511.00,29.08 Z" fill="rgb(253,254,254)"/>
</g>
</svg>