<svg xmlns="http://www.w3.org/2000/svg" width="512" height="512" viewBox="0 0 512 512">
<g>
<path d="M 95.50 510.58 C87.07,508.47 80.77,504.87 74.46,498.55 C67.96,492.05 63.98,484.83 62.13,476.20 C60.53,468.72 60.51,43.41 62.11,35.80 C65.72,18.67 79.58,4.82 96.80,1.13 C100.55,0.33 131.19,0.00 201.55,0.00 L 301.00 0.00 L 301.00 54.45 C301.00,91.26 301.37,110.62 302.13,114.20 C305.80,131.31 319.69,145.20 336.80,148.87 C340.38,149.63 359.74,150.00 396.55,150.00 L 451.00 150.00 L 451.00 310.45 C451.00,424.13 450.68,472.45 449.89,476.20 C446.34,493.14 432.17,507.31 415.20,510.88 C407.16,512.58 102.33,512.29 95.50,510.58 ZM 293.03 418.99 C297.46,416.72 301.00,410.96 301.00,406.00 C301.00,401.04 297.46,395.28 293.03,393.01 C289.19,391.06 287.25,391.00 225.93,391.00 L 162.77 391.00 L 158.78 393.24 C148.72,398.90 148.62,412.59 158.59,418.62 L 162.50 420.99 L 225.79 420.99 C287.25,421.00 289.19,420.94 293.03,418.99 ZM 353.03 358.99 C357.46,356.72 361.00,350.96 361.00,346.00 C361.00,341.04 357.46,335.28 353.03,333.01 C349.15,331.04 347.31,331.00 255.93,331.00 L 162.77 331.00 L 158.78 333.24 C148.72,338.90 148.62,352.59 158.59,358.62 L 162.50 360.99 L 255.79 360.99 C347.32,361.00 349.15,360.96 353.03,358.99 ZM 353.03 298.99 C357.46,296.72 361.00,290.96 361.00,286.00 C361.00,281.04 357.46,275.28 353.03,273.01 C349.15,271.04 347.31,271.00 255.93,271.00 L 162.77 271.00 L 158.78 273.24 C148.72,278.90 148.62,292.59 158.59,298.62 L 162.50 300.99 L 255.79 300.99 C347.32,301.00 349.15,300.96 353.03,298.99 ZM 353.03 238.99 C357.46,236.72 361.00,230.96 361.00,226.00 C361.00,221.04 357.46,215.28 353.03,213.01 C349.15,211.04 347.31,211.00 255.93,211.00 L 162.77 211.00 L 158.78 213.24 C148.72,218.90 148.62,232.59 158.59,238.62 L 162.50 240.99 L 255.79 240.99 C347.32,241.00 349.15,240.96 353.03,238.99 ZM 338.42 117.54 C330.79,112.96 330.92,114.04 331.23,58.25 L 331.50 8.99 L 387.00 64.50 L 442.49 120.00 L 392.50 119.99 L 342.50 119.98 L 338.42 117.54 Z" fill="rgba(68,101,196,1)"/>
</g>
</svg>