<svg xmlns="http://www.w3.org/2000/svg" width="512" height="512" viewBox="0 0 512 512">
<g>
<path d="M 133.00 360.92 C124.92,357.26 119.50,350.51 117.50,341.59 L 116.35 336.50 L 65.42 336.00 C8.89,335.44 11.52,335.77 5.19,328.57 C0.18,322.86 -0.27,319.74 0.27,294.91 C0.85,268.11 2.24,261.22 10.45,244.50 C20.67,223.69 35.74,208.62 56.50,198.47 C71.06,191.35 81.07,188.86 97.50,188.25 C116.86,187.54 134.71,191.57 149.73,200.04 C155.95,203.55 154.27,204.15 164.93,194.66 C181.43,179.96 205.95,168.09 229.66,163.32 C241.97,160.84 270.03,160.84 282.34,163.32 C306.34,168.15 333.30,181.41 348.16,195.71 L 351.82 199.23 L 364.16 193.14 C378.00,186.31 389.39,182.99 402.00,182.10 C452.41,178.54 496.05,209.14 508.75,256.95 C511.00,265.41 511.34,269.02 511.75,288.50 C512.26,313.01 511.77,316.42 506.85,322.38 C500.45,330.12 501.82,329.95 445.25,329.98 L 395.00 330.00 L 395.00 335.32 C395.00,346.36 388.97,356.24 379.56,360.63 L 374.50 362.98 L 256.00 362.97 C138.94,362.96 137.45,362.93 133.00,360.92 ZM 373.70 345.04 C378.14,342.34 378.85,338.66 378.91,318.00 C379.03,277.18 373.84,255.52 358.37,232.26 C339.78,204.32 308.31,184.07 275.50,178.94 C265.25,177.34 246.75,177.34 236.50,178.94 C185.32,186.94 144.08,227.70 134.92,279.33 C133.40,287.93 132.72,334.25 134.05,339.19 C134.77,341.87 136.10,343.70 138.30,345.04 C141.42,346.95 144.23,346.99 256.00,346.99 C367.77,346.99 370.58,346.95 373.70,345.04 ZM 117.29 299.75 C117.69,284.60 118.34,277.24 119.86,270.50 C123.76,253.20 130.44,237.19 139.44,223.60 C141.95,219.81 144.00,216.38 144.00,215.99 C144.00,214.79 130.03,208.93 122.02,206.77 C111.23,203.85 91.58,203.91 80.50,206.88 C49.76,215.14 26.72,238.20 19.02,268.41 C17.32,275.08 17.00,279.55 17.00,296.96 C17.00,311.68 17.34,317.94 18.20,318.80 C19.10,319.70 31.55,320.00 68.07,320.00 L 116.75 320.00 L 117.29 299.75 ZM 493.07 312.96 C494.88,311.99 495.00,310.68 494.99,291.21 C494.99,274.21 494.64,269.07 493.06,262.50 C485.84,232.53 463.33,209.67 432.29,200.79 C421.95,197.83 401.10,197.64 390.50,200.41 C383.71,202.18 370.81,207.59 366.27,210.56 L 364.03 212.02 L 368.36 217.76 C385.87,241.00 394.98,269.55 394.99,301.25 L 395.00 314.00 L 443.07 314.00 C474.29,314.00 491.81,313.64 493.07,312.96 ZM 94.50 172.99 C80.40,171.46 67.81,164.96 57.50,153.90 C36.14,130.98 36.95,95.86 59.35,73.60 C67.56,65.44 75.18,61.04 86.51,57.93 C101.68,53.77 120.54,56.76 133.54,65.39 C155.89,80.24 165.75,107.67 157.65,132.50 C148.94,159.22 122.67,176.06 94.50,172.99 ZM 118.44 153.17 C127.06,149.14 132.30,144.80 136.93,137.87 C153.85,112.53 138.39,77.97 107.93,73.07 C89.60,70.11 70.58,79.99 62.88,96.45 C55.45,112.33 57.95,129.98 69.44,142.69 C81.80,156.37 102.26,160.75 118.44,153.17 ZM 395.55 167.46 C351.77,155.45 336.79,101.13 368.55,69.61 C380.10,58.15 394.59,52.00 410.06,52.00 C420.71,52.00 426.96,53.45 437.00,58.23 C456.93,67.74 470.03,88.62 469.99,110.80 C469.93,136.94 451.10,160.95 425.54,167.48 C418.24,169.34 402.37,169.33 395.55,167.46 ZM 421.54 151.46 C442.25,146.10 455.95,125.88 453.00,105.01 C450.40,86.59 436.08,72.20 417.00,68.84 C399.30,65.73 380.76,75.60 372.34,92.62 C360.51,116.56 373.67,144.30 400.26,151.46 C407.23,153.33 414.29,153.33 421.54,151.46 ZM 239.08 149.91 C208.99,144.01 184.67,120.33 178.48,90.91 C168.40,42.97 207.91,-2.64 256.96,0.31 C269.28,1.05 276.32,2.94 287.96,8.65 C295.96,12.58 298.83,14.71 306.48,22.40 C316.62,32.59 321.73,40.58 325.74,52.50 C328.17,59.74 328.43,61.92 328.46,75.50 C328.50,88.58 328.20,91.38 326.18,97.41 C316.99,124.87 296.13,143.76 268.79,149.41 C260.58,151.10 246.37,151.34 239.08,149.91 ZM 271.78 131.50 C295.56,123.94 312.97,100.28 312.97,75.50 C312.97,49.53 293.76,25.18 268.00,18.48 C259.07,16.16 241.90,16.84 233.57,19.84 C215.04,26.52 201.09,41.38 195.39,60.50 C191.14,74.80 194.31,94.43 203.04,107.73 C212.00,121.38 228.56,131.77 245.50,134.36 C251.51,135.28 264.23,133.89 271.78,131.50 Z" fill="rgba(68,102,195,1)"/>
</g>
</svg>