<svg xmlns="http://www.w3.org/2000/svg" width="512" height="512" viewBox="0 0 512 512">
<g>
<path d="M 140.48 510.20 C134.02,507.96 129.55,504.75 125.90,499.70 C119.79,491.27 120.00,495.41 120.00,382.96 L 120.00 280.29 L 107.25 279.73 C93.13,279.11 84.21,277.47 72.98,273.44 C36.42,260.31 9.52,228.92 1.89,190.50 C0.10,181.47 0.10,158.53 1.89,149.50 C9.52,111.04 36.38,79.70 72.98,66.56 C84.20,62.53 93.13,60.89 107.17,60.28 L 119.85 59.72 L 120.17 41.11 C120.46,24.72 120.75,21.96 122.61,17.95 C125.68,11.30 130.38,6.45 136.82,3.29 L 142.50 0.50 L 274.47 0.24 L 406.45 -0.03 L 459.24 52.76 L 512.02 105.54 L 511.76 297.52 L 511.50 489.50 L 508.71 495.18 C505.55,501.62 500.70,506.32 494.05,509.39 L 489.50 511.50 L 317.50 511.72 C156.24,511.93 145.19,511.84 140.48,510.20 ZM 486.85 490.57 C488.37,489.79 490.15,487.97 490.81,486.53 C491.72,484.53 492.00,440.89 492.00,301.95 L 492.00 120.00 L 445.95 120.00 C396.00,120.00 395.67,119.97 393.19,114.53 C392.32,112.62 392.00,99.45 392.00,65.95 L 392.00 20.00 L 269.95 20.00 C136.61,20.00 143.61,19.69 141.12,25.72 C140.34,27.59 140.04,34.46 140.23,46.34 L 140.50 64.14 L 149.00 67.34 C184.58,80.73 210.60,111.67 218.11,149.50 C219.90,158.53 219.90,181.47 218.11,190.50 C210.61,228.31 184.56,259.27 149.00,272.66 L 140.50 275.86 L 140.24 379.68 C140.05,456.10 140.28,484.24 141.13,486.29 C143.59,492.28 132.30,491.92 315.80,491.96 C459.56,491.99 484.50,491.79 486.85,490.57 ZM 132.50 257.05 C158.46,250.30 179.84,232.42 191.56,207.69 C194.97,200.50 199.00,186.76 199.00,182.34 L 199.00 180.00 L 153.55 180.00 C120.44,180.00 107.38,179.68 105.47,178.81 C100.04,176.33 100.00,175.96 100.00,126.55 L 100.00 81.00 L 97.66 81.00 C92.57,81.00 79.02,85.21 70.26,89.53 C47.14,100.91 29.66,122.27 22.81,147.50 C19.73,158.85 19.74,180.96 22.84,192.50 C31.98,226.62 59.33,251.90 94.34,258.59 C104.14,260.46 122.19,259.73 132.50,257.05 ZM 199.00 157.66 C199.00,153.24 194.97,139.50 191.56,132.31 C182.14,112.41 167.59,97.86 147.69,88.44 C140.50,85.03 126.76,81.00 122.34,81.00 L 120.00 81.00 L 120.00 120.50 L 120.00 160.00 L 159.50 160.00 L 199.00 160.00 L 199.00 157.66 ZM 477.00 99.74 C477.00,99.60 462.38,84.87 444.50,67.00 L 412.00 34.51 L 412.00 67.26 L 412.00 100.00 L 444.50 100.00 C462.38,100.00 477.00,99.88 477.00,99.74 ZM 180.33 444.21 C159.95,436.92 153.59,412.07 167.92,395.74 C174.66,388.07 188.32,384.24 198.11,387.29 L 202.73 388.72 L 220.61 369.22 C230.45,358.49 238.42,349.22 238.33,348.61 C238.23,348.00 237.58,344.91 236.87,341.75 C232.61,322.67 249.17,304.29 268.79,306.32 C287.56,308.25 299.83,326.33 294.59,344.33 L 292.94 350.01 L 308.22 369.05 L 323.50 388.10 L 327.00 387.30 C328.92,386.86 333.80,386.54 337.84,386.59 L 345.19 386.68 L 379.54 349.85 L 413.90 313.02 L 411.72 308.26 C410.10,304.72 409.54,301.58 409.54,296.00 C409.54,287.48 411.62,281.78 416.92,275.74 C425.06,266.47 440.64,263.62 452.18,269.29 C462.91,274.56 468.46,283.67 468.46,296.00 C468.46,308.33 462.91,317.44 452.18,322.71 C447.32,325.10 445.29,325.50 438.09,325.48 L 429.67 325.47 L 395.38 362.20 L 361.08 398.94 L 363.27 403.72 C366.61,411.02 366.38,421.71 362.71,429.18 C359.54,435.63 354.68,440.33 348.05,443.37 C341.74,446.26 330.26,446.26 323.95,443.37 C310.22,437.08 303.24,422.01 307.41,407.67 L 309.06 401.99 L 293.78 382.94 C279.97,365.73 278.26,363.95 276.00,364.46 C269.37,365.97 262.24,366.07 257.90,364.72 L 253.29 363.28 L 239.90 377.84 C232.53,385.84 224.38,394.70 221.80,397.53 L 217.10 402.67 L 218.62 407.59 C221.53,416.95 218.89,428.50 212.08,436.26 C204.91,444.43 190.81,447.96 180.33,444.21 ZM 194.85 424.57 C200.77,421.52 201.59,414.39 196.60,409.40 C191.61,404.41 184.48,405.23 181.43,411.15 C176.73,420.22 185.78,429.27 194.85,424.57 ZM 340.85 424.57 C347.49,421.14 347.58,411.54 341.01,407.67 C336.60,405.06 333.24,405.56 329.40,409.40 C321.11,417.69 330.39,429.99 340.85,424.57 ZM 272.60 342.60 C276.34,338.86 276.90,335.64 274.57,331.15 C269.88,322.07 256.00,326.11 256.00,336.55 C256.00,340.44 261.89,346.00 266.00,346.00 C268.31,346.00 270.15,345.05 272.60,342.60 ZM 443.85 304.57 C450.60,301.08 450.40,290.33 443.53,287.19 C438.40,284.86 432.80,286.54 430.43,291.15 C427.82,296.19 429.17,301.40 433.83,304.29 C437.14,306.34 440.27,306.43 443.85,304.57 ZM 245.11 218.60 C236.44,213.80 240.07,200.00 250.00,200.00 C255.07,200.00 260.00,204.89 260.00,209.90 C260.00,217.41 251.70,222.26 245.11,218.60 ZM 285.11 218.60 C278.41,214.89 278.63,204.31 285.47,201.19 C289.24,199.48 442.76,199.48 446.53,201.19 C449.39,202.50 452.00,206.69 452.00,210.00 C452.00,213.31 449.39,217.50 446.53,218.81 C442.51,220.64 288.43,220.44 285.11,218.60 ZM 245.11 178.60 C236.44,173.80 240.07,160.00 250.00,160.00 C255.07,160.00 260.00,164.89 260.00,169.90 C260.00,177.41 251.70,182.26 245.11,178.60 ZM 285.11 178.60 C278.41,174.89 278.63,164.31 285.47,161.19 C289.24,159.48 442.76,159.48 446.53,161.19 C449.39,162.50 452.00,166.69 452.00,170.00 C452.00,173.31 449.39,177.50 446.53,178.81 C442.51,180.64 288.43,180.44 285.11,178.60 ZM 251.11 118.60 C244.41,114.89 244.63,104.31 251.47,101.19 C255.22,99.49 362.78,99.49 366.53,101.19 C369.39,102.50 372.00,106.69 372.00,110.00 C372.00,113.31 369.39,117.50 366.53,118.81 C362.53,120.62 254.42,120.44 251.11,118.60 ZM 251.11 78.60 C244.41,74.89 244.63,64.31 251.47,61.19 C255.22,59.49 362.78,59.49 366.53,61.19 C369.39,62.50 372.00,66.69 372.00,70.00 C372.00,73.31 369.39,77.50 366.53,78.81 C362.53,80.62 254.42,80.44 251.11,78.60 ZM 95.50 238.36 C91.65,237.55 84.27,234.85 79.10,232.35 C71.27,228.57 68.24,226.36 60.97,219.16 C53.55,211.79 51.56,209.08 47.68,201.00 C41.15,187.40 38.30,171.81 41.19,165.47 C42.49,162.64 46.69,160.00 49.90,160.00 C55.68,160.00 60.00,164.88 60.00,171.40 C60.00,196.21 83.79,220.00 108.60,220.00 C115.07,220.00 120.00,224.32 120.00,230.00 C120.00,233.29 117.72,237.09 114.85,238.57 C111.42,240.35 104.59,240.28 95.50,238.36 Z" fill="rgba(67,102,196,1)"/>
</g>
</svg>