<svg xmlns="http://www.w3.org/2000/svg" width="512" height="512" viewBox="0 0 512 512">
<g>
<path d="M 376.00 467.00 C374.02,468.98 372.69,469.00 259.75,468.96 C254.27,468.96 249.04,468.96 244.06,468.96 C152.34,468.93 141.28,468.93 140.09,465.51 C139.93,465.04 139.95,464.50 139.98,463.89 C139.99,463.65 140.00,463.40 140.00,463.14 C140.00,457.68 141.39,457.50 183.40,457.50 C204.36,457.50 222.44,457.85 223.59,458.27 C225.06,458.81 226.48,458.41 228.34,456.94 L 231.00 454.85 L 231.00 396.11 L 228.60 393.32 C226.34,390.69 225.99,390.60 222.78,391.76 C220.20,392.69 204.35,393.00 158.63,393.00 C156.09,393.00 153.65,393.00 151.31,393.00 C102.57,393.01 95.73,393.01 91.96,389.61 C91.17,388.89 90.51,388.01 89.62,386.96 C87.65,384.62 87.15,383.18 87.62,381.17 C88.90,375.61 91.38,368.43 92.66,366.53 C93.40,365.44 94.00,363.60 94.00,362.43 C94.00,361.27 94.90,359.50 96.00,358.50 C97.10,357.50 98.00,356.06 98.00,355.28 C98.00,353.46 102.84,343.21 104.06,342.46 C104.58,342.14 105.00,340.84 105.00,339.58 C105.00,338.31 105.90,336.13 107.00,334.73 C108.10,333.33 109.00,331.45 109.00,330.55 C109.00,329.65 109.91,327.94 111.02,326.74 C112.14,325.55 112.84,324.02 112.58,323.35 C112.32,322.68 112.99,321.02 114.06,319.66 C115.13,318.30 116.00,316.49 116.00,315.64 C116.00,314.79 117.06,312.52 118.36,310.61 C119.66,308.69 121.00,305.39 121.34,303.28 C121.68,301.16 122.80,298.51 123.84,297.40 C126.41,294.64 128.00,291.52 128.00,289.22 C128.00,288.17 128.88,286.29 129.96,285.05 C131.03,283.81 132.64,280.70 133.52,278.15 C134.41,275.59 135.85,272.15 136.73,270.50 C141.00,262.47 145.86,252.11 146.96,248.71 C147.63,246.63 149.38,244.16 150.84,243.21 C152.30,242.27 154.25,240.60 155.16,239.50 C156.80,237.53 158.20,237.50 255.35,237.24 L 353.88 236.97 L 359.32 242.24 C362.31,245.13 365.09,248.62 365.50,250.00 C365.91,251.38 368.85,257.90 372.02,264.50 C378.90,278.81 384.00,290.45 384.00,291.86 C384.00,292.42 385.80,294.96 388.00,297.50 C392.12,302.26 392.32,302.74 392.05,307.05 C391.96,308.45 392.82,310.77 393.95,312.20 C395.08,313.64 396.00,315.38 396.00,316.08 C396.00,316.77 396.71,318.13 397.58,319.09 C398.45,320.05 399.29,322.00 399.44,323.44 C399.60,324.87 400.47,326.86 401.36,327.85 C402.26,328.84 403.00,330.23 403.00,330.92 C403.00,331.62 403.90,333.33 405.00,334.73 C406.10,336.13 407.00,338.31 407.00,339.58 C407.00,340.84 407.42,342.14 407.94,342.46 C409.19,343.23 414.00,353.48 414.00,355.37 C414.00,356.18 415.01,357.67 416.25,358.68 C417.60,359.77 418.38,361.36 418.20,362.63 C418.03,363.79 418.66,365.52 419.60,366.45 C420.53,367.39 421.65,369.81 422.08,371.83 C422.51,373.85 423.34,377.30 423.91,379.50 C425.12,384.14 423.67,386.90 417.99,390.76 L 414.66 393.03 L 352.58 392.71 C318.44,392.53 289.38,392.07 288.00,391.69 C286.35,391.22 284.82,391.51 283.50,392.53 C281.59,394.01 281.49,395.45 281.21,424.44 L 280.92 454.79 L 283.48 456.81 C285.64,458.51 286.61,458.67 289.61,457.84 C295.16,456.31 372.90,457.16 375.75,458.79 C378.58,460.40 378.70,464.30 376.00,467.00 ZM 358.77 381.24 C381.72,381.38 401.10,381.39 401.83,381.25 C402.56,381.11 405.04,380.99 407.33,380.98 C415.02,380.96 415.05,380.55 408.19,366.16 C404.79,359.02 401.14,351.16 400.09,348.70 C399.03,346.24 397.73,343.95 397.20,343.62 C396.67,343.29 395.93,341.00 395.56,338.54 C395.19,336.07 394.49,333.80 394.00,333.50 C393.51,333.20 391.47,329.70 389.47,325.73 C387.51,321.85 386.63,319.36 384.92,317.76 C381.85,314.89 376.10,314.88 356.71,314.83 C354.06,314.83 351.15,314.82 347.95,314.81 C329.00,314.72 312.97,314.25 312.32,313.76 C311.58,313.20 310.17,313.50 308.57,314.55 C306.49,315.91 306.00,317.02 306.01,320.37 C306.02,322.64 306.70,326.74 307.53,329.48 C308.36,332.21 308.82,335.03 308.55,335.73 C308.28,336.44 308.45,338.06 308.94,339.34 C310.50,343.44 315.07,372.67 314.41,374.37 C314.06,375.27 314.51,377.13 315.41,378.50 L 317.03 380.98 ZM 105.33 381.00 C108.72,381.27 130.46,381.38 153.64,381.23 L 195.77 380.96 L 196.98 378.04 C197.65,376.43 197.90,374.65 197.55,374.07 C196.84,372.93 201.37,344.52 203.12,339.18 C203.71,337.36 203.98,335.64 203.70,335.37 C203.43,335.10 203.82,332.32 204.57,329.19 C206.21,322.31 206.37,317.34 204.96,316.48 C204.02,315.89 127.86,315.67 127.52,316.25 C127.44,316.39 125.65,319.88 123.55,324.00 C121.44,328.12 119.17,332.17 118.49,333.00 C117.81,333.83 116.93,336.28 116.54,338.45 C116.15,340.62 114.97,343.49 113.92,344.83 C112.86,346.17 112.00,347.68 112.00,348.18 C112.00,348.68 108.78,355.82 104.84,364.05 C100.91,372.28 98.02,379.35 98.42,379.76 C98.83,380.17 101.94,380.73 105.33,381.00 ZM 208.61 379.50 C210.19,380.70 218.17,380.94 256.71,380.97 C261.52,380.97 265.86,380.99 269.78,381.00 C294.97,381.08 302.79,381.10 304.53,377.87 C305.31,376.41 304.85,374.30 304.19,371.23 C303.97,370.17 303.71,368.99 303.48,367.69 C302.57,362.64 301.43,355.35 300.95,351.50 C300.47,347.65 299.61,341.58 299.04,338.00 C298.47,334.42 297.72,328.35 297.37,324.50 C297.03,320.65 296.34,316.99 295.84,316.36 C294.67,314.88 289.08,314.06 288.34,315.25 C288.01,315.79 273.21,316.05 252.61,315.89 C233.26,315.74 216.89,315.95 216.22,316.37 C215.55,316.78 214.99,319.22 214.98,321.81 C214.97,324.39 214.26,330.55 213.40,335.50 C212.54,340.45 211.43,347.88 210.94,352.00 C209.87,360.86 209.31,364.51 207.82,372.28 C206.81,377.54 206.89,378.20 208.61,379.50 ZM 262.00 171.08 C262.00,171.59 259.30,172.00 256.00,172.00 C252.70,172.00 250.00,171.60 250.00,171.11 C250.00,170.62 248.76,169.93 247.25,169.58 C241.89,168.33 231.70,162.50 230.10,159.77 C229.22,158.26 227.27,156.60 225.77,156.07 C222.63,154.97 219.44,150.27 217.91,144.50 C217.33,142.30 215.99,138.84 214.93,136.80 C211.81,130.82 212.35,125.52 217.57,110.73 C219.76,104.51 220.78,102.84 222.70,102.36 C224.42,101.93 225.00,101.17 224.79,99.63 C224.56,97.96 225.09,97.43 227.25,97.18 C229.18,96.96 230.17,96.15 230.60,94.47 C230.93,93.15 232.17,91.78 233.35,91.42 C234.53,91.06 236.40,89.98 237.50,89.01 C240.00,86.82 246.30,85.67 256.00,85.64 C265.23,85.62 270.87,86.71 273.50,89.03 C274.60,90.00 276.39,90.96 277.47,91.16 C278.56,91.36 280.01,92.64 280.69,94.01 C281.41,95.48 283.07,96.71 284.71,97.02 C286.78,97.41 287.43,98.05 287.23,99.52 C287.06,100.76 287.78,101.88 289.15,102.50 C291.73,103.68 292.06,104.27 295.54,113.78 C299.32,124.14 299.87,131.86 297.13,136.29 C295.96,138.18 295.00,140.58 294.99,141.62 C294.97,145.88 290.19,153.61 284.68,158.31 C278.88,163.25 269.62,168.48 264.75,169.55 C263.24,169.89 262.00,170.57 262.00,171.08 ZM 221.36 301.50 C221.86,302.79 226.69,303.00 256.45,303.00 L 290.95 303.00 L 292.66 300.40 C294.02,298.32 294.12,297.43 293.18,295.92 C292.53,294.88 292.00,292.42 292.00,290.45 C292.00,288.48 291.49,285.92 290.87,284.75 C289.80,282.76 287.16,264.81 286.51,255.18 C286.31,252.29 285.49,250.17 284.03,248.81 C281.99,246.92 281.35,246.85 274.38,247.89 C264.81,249.31 247.19,249.31 237.62,247.89 C230.66,246.85 230.01,246.92 227.98,248.81 C226.44,250.24 225.72,252.25 225.51,255.67 C225.00,264.23 222.05,284.24 221.12,285.39 C220.63,286.00 219.99,288.30 219.69,290.50 C219.40,292.70 218.85,295.74 218.46,297.25 C217.93,299.34 218.13,300.00 219.28,300.00 C220.11,300.00 221.05,300.67 221.36,301.50 ZM 307.00 302.53 C308.92,303.25 311.85,303.63 313.50,303.38 C315.15,303.13 329.90,302.95 346.27,302.99 C372.61,303.04 376.11,302.87 376.65,301.46 C376.99,300.58 376.76,299.36 376.13,298.73 C375.51,298.11 375.00,296.77 375.00,295.75 C375.00,294.73 374.15,292.23 373.11,290.20 C372.07,288.16 369.75,283.45 367.96,279.72 C366.17,275.99 364.33,272.70 363.86,272.41 C363.38,272.12 363.00,270.70 363.00,269.26 C363.00,267.81 362.14,265.70 361.09,264.56 C360.04,263.43 359.03,261.15 358.84,259.50 C358.65,257.85 357.95,256.05 357.27,255.50 C356.59,254.95 355.89,253.50 355.71,252.28 C355.53,251.05 355.16,249.83 354.89,249.56 C353.88,248.55 296.79,248.81 295.77,249.83 C295.15,250.45 295.07,251.97 295.56,253.68 C296.00,255.23 296.49,257.17 296.63,258.00 C296.78,258.83 297.35,261.30 297.90,263.50 C298.46,265.70 299.44,271.69 300.09,276.81 C300.73,281.93 301.77,286.65 302.38,287.31 C303.00,287.96 303.50,291.36 303.50,294.86 C303.50,301.22 303.50,301.23 307.00,302.53 ZM 164.00 302.04 C192.10,302.65 202.57,302.58 206.50,301.74 C208.20,301.38 208.57,300.29 209.00,294.41 C209.27,290.61 209.79,287.05 210.15,286.50 C210.51,285.95 211.33,281.09 211.98,275.69 C212.62,270.30 214.01,263.36 215.07,260.28 C217.31,253.79 217.50,250.62 215.75,249.31 C215.00,248.75 202.84,248.60 185.50,248.94 L 156.50 249.50 L 156.15 252.00 C155.97,253.38 155.01,255.25 154.03,256.17 C152.91,257.23 152.42,258.75 152.72,260.30 C153.05,262.05 152.55,263.20 150.98,264.30 C149.22,265.53 148.85,266.59 149.18,269.43 C149.45,271.71 149.18,273.00 148.44,273.00 C147.06,273.00 141.91,282.53 141.53,285.77 C141.39,287.02 140.53,288.86 139.64,289.85 C138.74,290.84 138.00,292.58 138.00,293.71 C138.00,294.83 137.32,296.32 136.50,297.00 C135.21,298.07 134.47,300.55 135.25,301.21 C135.39,301.33 148.32,301.70 164.00,302.04 ZM 245.66 159.18 C246.58,159.35 251.62,159.42 256.88,159.32 C263.74,159.19 266.72,158.74 267.46,157.73 C268.03,156.96 269.62,156.03 271.00,155.66 C274.89,154.62 285.63,143.82 284.53,142.05 C284.25,141.60 284.77,141.29 285.69,141.36 C287.89,141.54 288.86,137.55 287.80,132.69 C287.34,130.59 287.20,128.48 287.50,128.00 C287.79,127.53 288.08,124.89 288.15,122.15 C288.28,116.18 286.00,112.01 278.38,104.25 C274.17,99.97 271.95,98.61 266.36,96.86 C257.94,94.24 253.38,94.26 245.10,96.94 C239.77,98.67 237.71,100.05 232.85,105.16 C229.63,108.54 227.00,111.99 227.00,112.82 C227.00,113.66 226.25,115.17 225.34,116.18 C223.45,118.26 223.29,128.24 225.14,128.87 C225.90,129.13 225.88,129.45 225.08,129.95 C223.82,130.73 223.34,139.12 224.44,140.91 C224.83,141.53 225.52,141.79 226.00,141.50 C226.47,141.21 227.11,141.78 227.43,142.77 C228.32,145.58 237.16,154.12 240.75,155.65 C242.54,156.41 244.00,157.44 244.00,157.94 C244.00,158.44 244.75,159.00 245.66,159.18 ZM 243.09 457.39 C244.44,458.79 245.91,459.51 246.48,459.06 C247.91,457.94 264.90,458.03 265.60,459.16 C265.92,459.68 267.34,458.93 268.76,457.51 L 271.35 454.92 L 271.10 427.91 C270.91,408.52 271.17,400.50 272.00,399.50 C272.64,398.73 272.89,397.23 272.55,396.17 C272.03,394.52 270.76,394.19 263.72,393.86 C259.20,393.64 251.90,393.70 247.50,393.98 L 239.50 394.50 L 239.91 397.50 C240.14,399.15 240.41,412.74 240.52,427.71 C240.71,454.87 240.72,454.92 243.09,457.39 ZM 205.17 186.35 C203.10,188.22 200.53,188.36 197.25,186.78 C192.51,184.49 196.47,176.13 203.58,173.42 C207.81,171.80 208.13,171.81 210.01,173.51 C212.66,175.91 212.52,177.62 209.50,179.59 C208.12,180.49 207.00,182.01 207.00,182.96 C207.00,183.91 206.18,185.43 205.17,186.35 ZM 189.80 131.80 C188.13,133.47 179.07,133.23 175.75,131.43 C171.93,129.35 172.02,125.56 175.95,123.53 C179.10,121.90 182.83,121.62 187.88,122.62 C190.69,123.19 191.00,123.61 191.00,126.93 C191.00,128.95 190.46,131.14 189.80,131.80 ZM 336.05 131.47 C332.71,133.20 325.37,133.45 322.75,131.92 C321.57,131.23 321.00,129.66 321.00,127.08 C321.00,123.59 321.28,123.19 324.12,122.62 C329.75,121.50 333.69,121.97 336.37,124.07 C339.84,126.81 339.73,129.57 336.05,131.47 ZM 309.00 80.54 C304.02,84.86 301.00,84.46 301.00,79.47 C301.00,77.61 301.56,75.74 302.25,75.30 C302.94,74.86 304.18,73.16 305.02,71.53 C306.82,68.02 313.02,65.94 315.52,68.02 C318.04,70.11 317.36,74.73 314.25,76.66 C312.74,77.60 310.38,79.34 309.00,80.54 ZM 315.07 186.14 C313.81,187.16 311.77,188.00 310.54,188.00 C308.03,188.00 305.00,185.15 305.00,182.79 C305.00,181.93 303.88,180.49 302.50,179.59 C299.50,177.63 299.34,175.91 301.93,173.56 C303.26,172.36 304.57,172.05 306.18,172.55 C309.99,173.76 314.70,177.87 316.08,181.18 C317.25,184.02 317.17,184.45 315.07,186.14 ZM 210.80 79.88 C210.43,83.09 206.12,84.06 203.93,81.41 C203.16,80.49 200.84,78.66 198.76,77.35 C195.84,75.51 195.00,74.34 195.00,72.11 C195.00,68.18 197.05,66.73 201.43,67.55 C204.21,68.07 205.69,69.24 208.06,72.74 C209.98,75.59 211.00,78.23 210.80,79.88 ZM 259.00 209.00 C257.90,210.10 256.55,211.00 256.00,211.00 C255.45,211.00 254.10,210.10 253.00,209.00 C251.49,207.49 251.00,205.67 251.00,201.58 C251.00,194.18 251.61,193.00 255.41,193.00 C259.92,193.00 261.00,194.58 261.00,201.20 C261.00,205.67 260.54,207.46 259.00,209.00 ZM 260.15 60.75 C259.09,62.47 253.40,63.46 252.55,62.08 C251.11,59.75 250.90,50.50 252.23,48.00 C253.82,44.98 257.16,44.29 259.06,46.57 C260.57,48.39 261.37,58.78 260.15,60.75 Z" fill="rgb(68,102,196)"/>
<path d="M 379.17 468.35 C377.49,469.87 367.74,470.00 259.36,470.00 C142.01,470.00 141.37,469.99 139.19,467.96 C136.12,465.10 136.32,460.68 139.63,458.07 C142.21,456.05 143.28,456.00 185.63,456.00 L 229.00 456.00 L 229.00 394.00 L 162.40 394.00 C102.97,394.00 95.43,393.83 92.37,392.37 C87.76,390.18 85.00,386.44 85.00,382.38 C85.00,379.30 96.97,352.25 115.91,312.50 C119.06,305.90 126.99,288.80 133.54,274.50 C148.41,242.04 148.88,241.13 152.32,238.59 C155.14,236.50 155.29,236.50 256.51,236.50 L 357.87 236.50 L 360.84 239.34 C363.82,242.20 366.08,246.87 402.58,325.50 C405.41,331.60 407.94,337.04 410.20,341.90 C426.78,377.54 428.78,381.83 427.47,384.52 C427.12,385.26 426.51,385.88 425.89,386.98 C425.19,388.23 424.69,389.26 423.98,390.11 C420.69,394.01 412.77,394.01 358.36,394.00 C355.83,394.00 353.20,394.00 350.47,394.00 L 284.00 394.00 L 284.00 456.00 L 330.50 456.00 C375.67,456.00 377.06,456.06 379.00,458.00 C381.55,460.55 381.65,466.11 379.17,468.35 ZM 376.00 467.00 C378.70,464.30 378.58,460.40 375.75,458.79 C372.90,457.16 295.16,456.31 289.61,457.84 C286.61,458.67 285.64,458.51 283.48,456.81 L 280.92 454.79 L 281.21 424.44 C281.49,395.45 281.59,394.01 283.50,392.53 C284.82,391.51 286.35,391.22 288.00,391.69 C289.38,392.07 318.44,392.53 352.58,392.71 L 414.66 393.03 L 417.99 390.76 C423.67,386.90 425.12,384.14 423.91,379.50 C423.34,377.30 422.51,373.85 422.08,371.83 C421.65,369.81 420.53,367.39 419.60,366.45 C418.66,365.52 418.03,363.79 418.20,362.63 C418.38,361.36 417.60,359.77 416.25,358.68 C415.01,357.67 414.00,356.18 414.00,355.37 C414.00,353.48 409.19,343.23 407.94,342.46 C407.42,342.14 407.00,340.84 407.00,339.58 C407.00,338.31 406.10,336.13 405.00,334.73 C403.90,333.33 403.00,331.62 403.00,330.92 C403.00,330.23 402.26,328.84 401.36,327.85 C400.47,326.86 399.60,324.87 399.44,323.44 C399.29,322.00 398.45,320.05 397.58,319.09 C396.71,318.13 396.00,316.77 396.00,316.08 C396.00,315.38 395.08,313.64 393.95,312.20 C392.82,310.77 391.96,308.45 392.05,307.05 C392.32,302.74 392.12,302.26 388.00,297.50 C385.80,294.96 384.00,292.42 384.00,291.86 C384.00,290.45 378.90,278.81 372.02,264.50 C368.85,257.90 365.91,251.38 365.50,250.00 C365.09,248.62 362.31,245.13 359.32,242.24 L 353.88 236.97 L 255.35 237.24 C158.20,237.50 156.80,237.53 155.16,239.50 C154.25,240.60 152.30,242.27 150.84,243.21 C149.38,244.16 147.63,246.63 146.96,248.71 C145.86,252.11 141.00,262.47 136.73,270.50 C135.85,272.15 134.41,275.59 133.52,278.15 C132.64,280.70 131.03,283.81 129.96,285.05 C128.88,286.29 128.00,288.17 128.00,289.22 C128.00,291.52 126.41,294.64 123.84,297.40 C122.80,298.51 121.68,301.16 121.34,303.28 C121.00,305.39 119.66,308.69 118.36,310.61 C117.06,312.52 116.00,314.79 116.00,315.64 C116.00,316.49 115.13,318.30 114.06,319.66 C112.99,321.02 112.32,322.68 112.58,323.35 C112.84,324.02 112.14,325.55 111.02,326.74 C109.91,327.94 109.00,329.65 109.00,330.55 C109.00,331.45 108.10,333.33 107.00,334.73 C105.90,336.13 105.00,338.31 105.00,339.58 C105.00,340.84 104.58,342.14 104.06,342.46 C102.84,343.21 98.00,353.46 98.00,355.28 C98.00,356.06 97.10,357.50 96.00,358.50 C94.90,359.50 94.00,361.27 94.00,362.43 C94.00,363.60 93.40,365.44 92.66,366.53 C91.38,368.43 88.90,375.61 87.62,381.17 C87.15,383.18 87.65,384.62 89.62,386.96 C90.51,388.01 91.17,388.89 91.96,389.61 C95.73,393.01 102.57,393.01 151.31,393.00 C153.65,393.00 156.09,393.00 158.63,393.00 C204.35,393.00 220.20,392.69 222.78,391.76 C225.99,390.60 226.34,390.69 228.60,393.32 L 231.00 396.11 L 231.00 454.85 L 228.34 456.94 C226.48,458.41 225.06,458.81 223.59,458.27 C222.44,457.85 204.36,457.50 183.40,457.50 C141.39,457.50 140.00,457.68 140.00,463.14 C140.00,463.40 139.99,463.65 139.98,463.89 C139.95,464.50 139.93,465.04 140.09,465.51 C141.28,468.93 152.34,468.93 244.06,468.96 C249.04,468.96 254.27,468.96 259.75,468.96 C372.69,469.00 374.02,468.98 376.00,467.00 ZM 268.91 170.11 C248.28,176.52 225.80,166.36 216.22,146.28 C212.62,138.75 212.50,138.14 212.50,127.45 C212.50,116.73 212.61,116.17 216.18,108.95 C229.96,81.07 265.41,74.60 287.08,95.99 C297.21,105.99 302.23,120.78 299.99,134.04 C297.08,151.32 285.28,165.01 268.91,170.11 ZM 262.00 171.08 C262.00,170.57 263.24,169.89 264.75,169.55 C269.62,168.48 278.88,163.25 284.68,158.31 C290.19,153.61 294.97,145.88 294.99,141.62 C295.00,140.58 295.96,138.18 297.13,136.29 C299.87,131.86 299.32,124.14 295.54,113.78 C292.06,104.27 291.73,103.68 289.15,102.50 C287.78,101.88 287.06,100.76 287.23,99.52 C287.43,98.05 286.78,97.41 284.71,97.02 C283.07,96.71 281.41,95.48 280.69,94.01 C280.01,92.64 278.56,91.36 277.47,91.16 C276.39,90.96 274.60,90.00 273.50,89.03 C270.87,86.71 265.23,85.62 256.00,85.64 C246.30,85.67 240.00,86.82 237.50,89.01 C236.40,89.98 234.53,91.06 233.35,91.42 C232.17,91.78 230.93,93.15 230.60,94.47 C230.17,96.15 229.18,96.96 227.25,97.18 C225.09,97.43 224.56,97.96 224.79,99.63 C225.00,101.17 224.42,101.93 222.70,102.36 C220.78,102.84 219.76,104.51 217.57,110.73 C212.35,125.52 211.81,130.82 214.93,136.80 C215.99,138.84 217.33,142.30 217.91,144.50 C219.44,150.27 222.63,154.97 225.77,156.07 C227.27,156.60 229.22,158.26 230.10,159.77 C231.70,162.50 241.89,168.33 247.25,169.58 C248.76,169.93 250.00,170.62 250.00,171.11 C250.00,171.60 252.70,172.00 256.00,172.00 C259.30,172.00 262.00,171.59 262.00,171.08 ZM 307.00 302.53 C303.50,301.23 303.50,301.22 303.50,294.86 C303.50,291.36 303.00,287.96 302.38,287.31 C301.77,286.65 300.73,281.93 300.09,276.81 C299.44,271.69 298.46,265.70 297.90,263.50 C297.35,261.30 296.78,258.83 296.63,258.00 C296.49,257.17 296.00,255.23 295.56,253.68 C295.07,251.97 295.15,250.45 295.77,249.83 C296.79,248.81 353.88,248.55 354.89,249.56 C355.16,249.83 355.53,251.05 355.71,252.28 C355.89,253.50 356.59,254.95 357.27,255.50 C357.95,256.05 358.65,257.85 358.84,259.50 C359.03,261.15 360.04,263.43 361.09,264.56 C362.14,265.70 363.00,267.81 363.00,269.26 C363.00,270.70 363.38,272.12 363.86,272.41 C364.33,272.70 366.17,275.99 367.96,279.72 C369.75,283.45 372.07,288.16 373.11,290.20 C374.15,292.23 375.00,294.73 375.00,295.75 C375.00,296.77 375.51,298.11 376.13,298.73 C376.76,299.36 376.99,300.58 376.65,301.46 C376.11,302.87 372.61,303.04 346.27,302.99 C329.90,302.95 315.15,303.13 313.50,303.38 C311.85,303.63 308.92,303.25 307.00,302.53 ZM 245.66 159.18 C244.75,159.00 244.00,158.44 244.00,157.94 C244.00,157.44 242.54,156.41 240.75,155.65 C237.16,154.12 228.32,145.58 227.43,142.77 C227.11,141.78 226.47,141.21 226.00,141.50 C225.52,141.79 224.83,141.53 224.44,140.91 C223.34,139.12 223.82,130.73 225.08,129.95 C225.88,129.45 225.90,129.13 225.14,128.87 C223.29,128.24 223.45,118.26 225.34,116.18 C226.25,115.17 227.00,113.66 227.00,112.82 C227.00,111.99 229.63,108.54 232.85,105.16 C237.71,100.05 239.77,98.67 245.10,96.94 C253.38,94.26 257.94,94.24 266.36,96.86 C271.95,98.61 274.17,99.97 278.38,104.25 C286.00,112.01 288.28,116.18 288.15,122.15 C288.08,124.89 287.79,127.53 287.50,128.00 C287.20,128.48 287.34,130.59 287.80,132.69 C288.86,137.55 287.89,141.54 285.69,141.36 C284.77,141.29 284.25,141.60 284.53,142.05 C285.63,143.82 274.89,154.62 271.00,155.66 C269.62,156.03 268.03,156.96 267.46,157.73 C266.72,158.74 263.74,159.19 256.88,159.32 C251.62,159.42 246.58,159.35 245.66,159.18 ZM 305.50 299.75 L 306.04 302.00 L 341.02 302.00 C360.26,302.00 376.00,301.88 376.00,301.73 C376.00,301.59 370.69,290.00 364.21,275.98 L 352.41 250.50 L 325.21 250.23 C309.46,250.08 298.00,250.35 298.00,250.87 C298.00,252.27 304.90,297.21 305.50,299.75 ZM 245.42 155.94 C256.30,160.13 267.65,157.92 276.40,149.91 C283.53,143.40 286.45,136.85 286.39,127.50 C286.34,118.01 283.42,111.50 276.29,104.99 C266.88,96.38 254.28,94.69 242.48,100.47 C231.96,105.62 225.99,115.62 226.00,128.09 C226.00,140.23 233.86,151.49 245.42,155.94 ZM 358.77 381.24 L 317.03 380.98 L 315.41 378.50 C314.51,377.13 314.06,375.27 314.41,374.37 C315.07,372.67 310.50,343.44 308.94,339.34 C308.45,338.06 308.28,336.44 308.55,335.73 C308.82,335.03 308.36,332.21 307.53,329.48 C306.70,326.74 306.02,322.64 306.01,320.37 C306.00,317.02 306.49,315.91 308.57,314.55 C310.17,313.50 311.58,313.20 312.32,313.76 C312.97,314.25 329.00,314.72 347.95,314.81 C351.15,314.82 354.06,314.83 356.71,314.83 C370.84,314.87 377.73,314.88 381.61,316.00 L 307.78 316.00 L 308.36 319.25 C308.68,321.04 310.76,334.42 313.00,349.00 C315.23,363.58 317.28,376.51 317.55,377.75 L 318.04 380.00 L 365.02 380.00 C390.86,380.00 412.00,379.78 412.00,379.52 C412.00,379.00 388.76,328.52 384.94,320.75 L 382.81 316.42 C383.66,316.78 384.34,317.22 384.92,317.76 C386.63,319.36 387.51,321.85 389.47,325.73 C391.47,329.70 393.51,333.20 394.00,333.50 C394.49,333.80 395.19,336.07 395.56,338.54 C395.93,341.00 396.67,343.29 397.20,343.62 C397.73,343.95 399.03,346.24 400.09,348.70 C401.14,351.16 404.79,359.02 408.19,366.16 C415.05,380.55 415.02,380.96 407.33,380.98 C405.04,380.99 402.56,381.11 401.83,381.25 C401.10,381.39 381.72,381.38 358.77,381.24 ZM 105.33 381.00 C101.94,380.73 98.83,380.17 98.42,379.76 C98.02,379.35 100.91,372.28 104.84,364.05 C108.78,355.82 112.00,348.68 112.00,348.18 C112.00,347.68 112.86,346.17 113.92,344.83 C114.97,343.49 116.15,340.62 116.54,338.45 C116.93,336.28 117.81,333.83 118.49,333.00 C119.17,332.17 121.44,328.12 123.55,324.00 C125.65,319.88 127.44,316.39 127.52,316.25 C127.68,315.98 144.73,315.88 162.79,315.92 C145.68,315.91 129.65,316.02 129.44,316.25 C129.24,316.47 101.68,375.65 100.33,378.75 C99.90,379.74 109.63,380.00 147.14,380.00 L 194.50 380.00 L 199.35 348.43 C202.00,331.20 203.94,316.84 203.69,316.36 C204.45,316.39 204.89,316.43 204.96,316.48 C206.37,317.34 206.21,322.31 204.57,329.19 C203.82,332.32 203.43,335.10 203.70,335.37 C203.98,335.64 203.71,337.36 203.12,339.18 C201.37,344.52 196.84,372.93 197.55,374.07 C197.90,374.65 197.65,376.43 196.98,378.04 L 195.77 380.96 L 153.64 381.23 C130.46,381.38 108.72,381.27 105.33,381.00 ZM 221.36 301.50 C221.05,300.67 220.11,300.00 219.28,300.00 C218.13,300.00 217.93,299.34 218.46,297.25 C218.85,295.74 219.40,292.70 219.69,290.50 C219.99,288.30 220.63,286.00 221.12,285.39 C222.05,284.24 225.00,264.23 225.51,255.67 C225.72,252.25 226.44,250.24 227.98,248.81 C230.01,246.92 230.66,246.85 237.62,247.89 C247.19,249.31 264.81,249.31 274.38,247.89 C281.35,246.85 281.99,246.92 284.03,248.81 C285.49,250.17 286.31,252.29 286.51,255.18 C287.16,264.81 289.80,282.76 290.87,284.75 C291.49,285.92 292.00,288.48 292.00,290.45 C292.00,292.42 292.53,294.88 293.18,295.92 C294.12,297.43 294.02,298.32 292.66,300.40 L 290.95 303.00 L 256.45 303.00 C275.39,303.00 291.07,302.66 291.31,302.25 C291.54,301.84 289.91,289.91 287.68,275.73 L 283.62 249.97 L 228.53 250.50 L 224.70 275.36 C222.63,288.82 221.16,300.47 221.39,301.57 C221.38,301.55 221.37,301.52 221.36,301.50 ZM 243.09 457.39 C240.72,454.92 240.71,454.87 240.52,427.71 C240.41,412.74 240.14,399.15 239.91,397.50 L 239.50 394.50 L 243.00 394.27 L 243.00 456.00 L 270.00 456.00 L 270.00 394.39 C271.72,394.72 272.26,395.23 272.55,396.17 C272.89,397.23 272.64,398.73 272.00,399.50 C271.17,400.50 270.91,408.52 271.10,427.91 L 271.35 454.92 L 268.76 457.51 C267.34,458.93 265.92,459.68 265.60,459.16 C264.90,458.03 247.91,457.94 246.48,459.06 C245.91,459.51 244.44,458.79 243.09,457.39 ZM 259.60 65.23 C257.42,66.69 253.86,65.95 251.45,63.55 C249.31,61.40 249.00,60.20 249.00,54.00 C249.00,47.80 249.31,46.60 251.45,44.45 C254.49,41.41 258.28,41.31 260.96,44.19 C262.60,45.95 263.00,47.72 263.00,53.25 C263.00,59.88 261.92,63.69 259.60,65.23 ZM 261.00 211.00 C258.12,213.88 253.61,213.59 251.07,210.37 C248.30,206.84 248.09,195.29 250.75,192.15 C253.66,188.71 257.49,188.40 260.45,191.36 C262.73,193.64 263.00,194.70 263.00,201.45 C263.00,207.67 262.65,209.35 261.00,211.00 ZM 316.93 187.37 C313.48,191.74 309.68,190.98 303.35,184.65 C297.02,178.32 296.26,174.52 300.63,171.07 C304.71,167.87 306.82,168.50 313.16,174.84 C319.50,181.18 320.13,183.29 316.93,187.37 ZM 211.95 84.24 C208.15,87.32 205.16,86.46 199.35,80.65 C193.35,74.66 192.37,70.63 196.00,67.00 C199.39,63.61 202.61,64.46 208.74,70.35 C213.45,74.87 214.30,76.23 214.22,79.09 C214.15,81.28 213.35,83.11 211.95,84.24 ZM 339.71 132.72 C338.01,134.42 328.15,135.40 323.26,134.35 C318.36,133.29 316.43,126.57 320.00,123.00 C321.66,121.34 323.33,121.00 329.81,121.00 C334.88,121.00 338.28,121.49 339.51,122.38 C341.93,124.16 342.06,130.37 339.71,132.72 ZM 189.66 133.94 C186.76,135.04 178.61,135.25 176.00,134.29 C172.87,133.14 171.00,130.60 171.00,127.50 C171.00,122.35 173.42,121.00 182.67,121.00 C191.70,121.00 194.01,122.35 193.98,127.58 C193.96,131.35 193.09,132.63 189.66,133.94 ZM 312.47 80.94 C306.57,86.52 303.32,87.32 300.00,84.00 C296.87,80.87 297.46,76.91 301.75,72.32 C309.14,64.41 314.11,63.18 317.53,68.41 C319.85,71.94 318.52,75.22 312.47,80.94 ZM 208.16 185.25 C202.75,190.31 199.96,191.06 196.22,188.44 C192.26,185.67 193.21,181.13 199.01,175.18 C201.77,172.35 205.10,169.76 206.42,169.43 C211.34,168.20 215.92,173.45 214.09,178.25 C213.62,179.49 210.95,182.64 208.16,185.25 ZM 138.35 301.37 C136.41,301.30 135.29,301.24 135.25,301.21 C134.47,300.55 135.21,298.07 136.50,297.00 C137.32,296.32 138.00,294.83 138.00,293.71 C138.00,292.58 138.74,290.84 139.64,289.85 C140.53,288.86 141.39,287.02 141.53,285.77 C141.91,282.53 147.06,273.00 148.44,273.00 C149.18,273.00 149.45,271.71 149.18,269.43 C148.85,266.59 149.22,265.53 150.98,264.30 C152.55,263.20 153.05,262.05 152.72,260.30 C152.42,258.75 152.91,257.23 154.03,256.17 C155.01,255.25 155.97,253.38 156.15,252.00 L 156.50 249.50 L 185.50 248.94 C202.84,248.60 215.00,248.75 215.75,249.31 C217.50,250.62 217.31,253.79 215.07,260.28 C214.01,263.36 212.62,270.30 211.98,275.69 C211.33,281.09 210.51,285.95 210.15,286.50 C209.79,287.05 209.27,290.61 209.00,294.41 C208.57,300.29 208.20,301.38 206.50,301.74 C205.97,301.86 205.33,301.95 204.54,302.04 C205.30,301.88 205.69,301.69 205.92,301.45 C206.79,300.55 214.00,256.50 214.00,252.06 C214.00,250.03 213.61,250.00 187.19,250.00 L 160.37 250.00 L 158.55 253.75 C152.84,265.55 137.00,300.33 137.00,301.08 C137.00,301.18 137.48,301.27 138.35,301.37 ZM 205.17 186.35 C206.18,185.43 207.00,183.91 207.00,182.96 C207.00,182.01 208.12,180.49 209.50,179.59 C212.52,177.62 212.66,175.91 210.01,173.51 C208.13,171.81 207.81,171.80 203.58,173.42 C196.47,176.13 192.51,184.49 197.25,186.78 C200.53,188.36 203.10,188.22 205.17,186.35 ZM 189.80 131.80 C190.46,131.14 191.00,128.95 191.00,126.93 C191.00,123.61 190.69,123.19 187.88,122.62 C182.83,121.62 179.10,121.90 175.95,123.53 C172.02,125.56 171.93,129.35 175.75,131.43 C179.07,133.23 188.13,133.47 189.80,131.80 ZM 336.05 131.47 C339.73,129.57 339.84,126.81 336.37,124.07 C333.69,121.97 329.75,121.50 324.12,122.62 C321.28,123.19 321.00,123.59 321.00,127.08 C321.00,129.66 321.57,131.23 322.75,131.92 C325.37,133.45 332.71,133.20 336.05,131.47 ZM 309.00 80.54 C310.38,79.34 312.74,77.60 314.25,76.66 C317.36,74.73 318.04,70.11 315.52,68.02 C313.02,65.94 306.82,68.02 305.02,71.53 C304.18,73.16 302.94,74.86 302.25,75.30 C301.56,75.74 301.00,77.61 301.00,79.47 C301.00,84.46 304.02,84.86 309.00,80.54 ZM 315.07 186.14 C317.17,184.45 317.25,184.02 316.08,181.18 C314.70,177.87 309.99,173.76 306.18,172.55 C304.57,172.05 303.26,172.36 301.93,173.56 C299.34,175.91 299.50,177.63 302.50,179.59 C303.88,180.49 305.00,181.93 305.00,182.79 C305.00,185.15 308.03,188.00 310.54,188.00 C311.77,188.00 313.81,187.16 315.07,186.14 ZM 210.80 79.88 C211.00,78.23 209.98,75.59 208.06,72.74 C205.69,69.24 204.21,68.07 201.43,67.55 C197.05,66.73 195.00,68.18 195.00,72.11 C195.00,74.34 195.84,75.51 198.76,77.35 C200.84,78.66 203.16,80.49 203.93,81.41 C206.12,84.06 210.43,83.09 210.80,79.88 ZM 259.00 209.00 C260.54,207.46 261.00,205.67 261.00,201.20 C261.00,194.58 259.92,193.00 255.41,193.00 C251.61,193.00 251.00,194.18 251.00,201.58 C251.00,205.67 251.49,207.49 253.00,209.00 C254.10,210.10 255.45,211.00 256.00,211.00 C256.55,211.00 257.90,210.10 259.00,209.00 ZM 260.15 60.75 C261.37,58.78 260.57,48.39 259.06,46.57 C257.16,44.29 253.82,44.98 252.23,48.00 C250.90,50.50 251.11,59.75 252.55,62.08 C253.40,63.46 259.09,62.47 260.15,60.75 ZM 303.27 379.13 C302.42,370.64 294.33,317.00 293.74,316.41 C293.38,316.04 241.65,315.79 224.24,315.97 C230.97,315.84 241.28,315.80 252.61,315.89 C273.21,316.05 288.01,315.79 288.34,315.25 C289.08,314.06 294.67,314.88 295.84,316.36 C296.34,316.99 297.03,320.65 297.37,324.50 C297.72,328.35 298.47,334.42 299.04,338.00 C299.61,341.58 300.47,347.65 300.95,351.50 C301.43,355.35 302.57,362.64 303.48,367.69 C303.71,368.99 303.97,370.17 304.19,371.23 C304.85,374.30 305.31,376.41 304.53,377.87 C304.26,378.36 303.86,378.78 303.27,379.13 ZM 208.61 379.50 C206.89,378.20 206.81,377.54 207.82,372.28 C209.31,364.51 209.87,360.86 210.94,352.00 C211.43,347.88 212.54,340.45 213.40,335.50 C214.26,330.55 214.97,324.39 214.98,321.81 C214.99,319.22 215.55,316.78 216.22,316.37 C216.36,316.28 217.19,316.20 218.59,316.13 C217.71,317.33 208.83,378.12 209.34,379.45 C209.43,379.69 209.67,379.89 210.22,380.06 C209.38,379.90 208.89,379.72 208.61,379.50 ZM 265.60 380.99 C278.63,380.94 289.79,380.81 296.52,380.63 C291.22,381.07 282.83,381.04 269.78,381.00 C268.44,380.99 267.05,380.99 265.60,380.99 ZM 222.84 302.27 C225.88,302.86 234.49,303.00 256.13,303.00 C233.98,303.00 225.76,302.88 222.84,302.27 ZM 262.75 393.82 C263.09,393.83 263.41,393.84 263.72,393.86 C265.23,393.93 266.47,394.00 267.50,394.08 L 262.88 393.82 Z" fill="rgb(78,106,188)"/>
<path d="M 0.00 256.00 L 0.00 0.00 L 256.00 0.00 L 512.00 0.00 L 512.00 256.00 L 512.00 512.00 L 256.00 512.00 L 0.00 512.00 L 0.00 256.00 ZM 379.17 468.35 C381.65,466.11 381.55,460.55 379.00,458.00 C377.06,456.06 375.67,456.00 330.50,456.00 L 284.00 456.00 L 284.00 425.00 L 284.00 394.00 L 350.47 394.00 C424.78,394.00 421.79,394.28 425.89,386.98 C429.09,381.29 431.85,388.57 402.58,325.50 C366.08,246.87 363.82,242.20 360.84,239.34 L 357.87 236.50 L 256.51 236.50 C155.29,236.50 155.14,236.50 152.32,238.59 C148.88,241.13 148.41,242.04 133.54,274.50 C126.99,288.80 119.06,305.90 115.91,312.50 C96.97,352.25 85.00,379.30 85.00,382.38 C85.00,386.44 87.76,390.18 92.37,392.37 C95.43,393.83 102.97,394.00 162.40,394.00 L 229.00 394.00 L 229.00 425.00 L 229.00 456.00 L 185.63 456.00 C143.28,456.00 142.21,456.05 139.63,458.07 C136.32,460.68 136.12,465.10 139.19,467.96 C141.37,469.99 142.01,470.00 259.36,470.00 C367.74,470.00 377.49,469.87 379.17,468.35 ZM 261.00 211.00 C262.65,209.35 263.00,207.67 263.00,201.45 C263.00,194.70 262.73,193.64 260.45,191.36 C257.49,188.40 253.66,188.71 250.75,192.15 C248.09,195.29 248.30,206.84 251.07,210.37 C253.61,213.59 258.12,213.88 261.00,211.00 ZM 208.16 185.25 C210.95,182.64 213.62,179.49 214.09,178.25 C215.92,173.45 211.34,168.20 206.42,169.43 C205.10,169.76 201.77,172.35 199.01,175.18 C193.21,181.13 192.26,185.67 196.22,188.44 C199.96,191.06 202.75,190.31 208.16,185.25 ZM 316.93 187.37 C320.13,183.29 319.50,181.18 313.16,174.84 C306.82,168.50 304.71,167.87 300.63,171.07 C296.26,174.52 297.02,178.32 303.35,184.65 C309.68,190.98 313.48,191.74 316.93,187.37 ZM 268.91 170.11 C285.28,165.01 297.08,151.32 299.99,134.04 C302.23,120.78 297.21,105.99 287.08,95.99 C265.41,74.60 229.96,81.07 216.18,108.95 C212.61,116.17 212.50,116.73 212.50,127.45 C212.50,138.14 212.62,138.75 216.22,146.28 C225.80,166.36 248.28,176.52 268.91,170.11 ZM 189.66 133.94 C193.09,132.63 193.96,131.35 193.98,127.58 C194.01,122.35 191.70,121.00 182.67,121.00 C173.42,121.00 171.00,122.35 171.00,127.50 C171.00,130.60 172.87,133.14 176.00,134.29 C178.61,135.25 186.76,135.04 189.66,133.94 ZM 339.71 132.72 C342.06,130.37 341.93,124.16 339.51,122.38 C338.28,121.49 334.88,121.00 329.81,121.00 C323.33,121.00 321.66,121.34 320.00,123.00 C316.43,126.57 318.36,133.29 323.26,134.35 C328.15,135.40 338.01,134.42 339.71,132.72 ZM 211.95 84.24 C213.35,83.11 214.15,81.28 214.22,79.09 C214.30,76.23 213.45,74.87 208.74,70.35 C202.61,64.46 199.39,63.61 196.00,67.00 C192.37,70.63 193.35,74.66 199.35,80.65 C205.16,86.46 208.15,87.32 211.95,84.24 ZM 312.47 80.94 C318.52,75.22 319.85,71.94 317.53,68.41 C314.11,63.18 309.14,64.41 301.75,72.32 C297.46,76.91 296.87,80.87 300.00,84.00 C303.32,87.32 306.57,86.52 312.47,80.94 ZM 259.60 65.23 C261.92,63.69 263.00,59.88 263.00,53.25 C263.00,47.72 262.60,45.95 260.96,44.19 C258.28,41.31 254.49,41.41 251.45,44.45 C249.31,46.60 249.00,47.80 249.00,54.00 C249.00,60.20 249.31,61.40 251.45,63.55 C253.86,65.95 257.42,66.69 259.60,65.23 ZM 243.00 425.12 L 243.00 394.23 L 249.38 393.83 C252.89,393.60 258.96,393.60 262.88,393.82 L 270.00 394.23 L 270.00 425.11 L 270.00 456.00 L 256.50 456.00 L 243.00 456.00 L 243.00 425.12 ZM 209.34 379.45 C208.83,378.11 217.74,317.12 218.59,316.13 C218.97,315.69 293.30,315.97 293.74,316.41 C294.38,317.04 303.76,379.54 303.33,380.25 C303.08,380.66 281.97,381.00 256.41,381.00 C215.40,381.00 209.87,380.82 209.34,379.45 ZM 100.33 378.75 C101.68,375.65 129.24,316.47 129.44,316.25 C129.89,315.75 203.18,315.84 203.68,316.35 C203.97,316.64 202.02,331.07 199.35,348.43 L 194.50 380.00 L 147.14 380.00 C109.63,380.00 99.90,379.74 100.33,378.75 ZM 317.55 377.75 C317.28,376.51 315.23,363.58 313.00,349.00 C310.76,334.42 308.68,321.04 308.36,319.25 L 307.78 316.00 L 345.19 316.00 L 382.60 316.00 L 384.94 320.75 C388.76,328.52 412.00,379.00 412.00,379.52 C412.00,379.78 390.86,380.00 365.02,380.00 L 318.04 380.00 L 317.55 377.75 ZM 164.75 302.30 C149.48,302.12 137.00,301.57 137.00,301.08 C137.00,300.33 152.84,265.55 158.55,253.75 L 160.37 250.00 L 187.19 250.00 C213.61,250.00 214.00,250.03 214.00,252.06 C214.00,256.50 206.79,300.55 205.92,301.45 C204.78,302.62 199.95,302.72 164.75,302.30 ZM 221.41 301.61 C221.11,300.85 222.60,289.04 224.70,275.36 L 228.53 250.50 L 256.08 250.23 L 283.62 249.97 L 287.68 275.73 C289.91,289.91 291.54,301.84 291.31,302.25 C291.07,302.66 275.37,303.00 256.41,303.00 C227.94,303.00 221.84,302.76 221.41,301.61 ZM 305.50 299.75 C304.90,297.21 298.00,252.27 298.00,250.87 C298.00,250.35 309.46,250.08 325.21,250.23 L 352.41 250.50 L 364.21 275.98 C370.69,290.00 376.00,301.59 376.00,301.73 C376.00,301.88 360.26,302.00 341.02,302.00 L 306.04 302.00 L 305.50 299.75 ZM 245.42 155.94 C233.86,151.49 226.00,140.23 226.00,128.09 C225.99,115.62 231.96,105.62 242.48,100.47 C254.28,94.69 266.88,96.38 276.29,104.99 C283.42,111.50 286.34,118.01 286.39,127.50 C286.45,136.85 283.53,143.40 276.40,149.91 C267.65,157.92 256.30,160.13 245.42,155.94 Z" fill="rgb(254,254,254)"/>
</g>
</svg>