<svg xmlns="http://www.w3.org/2000/svg" width="512" height="512" viewBox="0 0 512 512">
<g>
<path d="M 23.10 510.74 C18.13,508.18 16.74,504.84 16.24,494.31 C15.41,476.66 18.63,467.89 27.38,463.91 C30.92,462.31 34.13,462.04 50.00,462.00 C71.45,461.95 74.40,461.15 79.99,453.88 C86.90,444.91 94.67,439.15 103.73,436.30 L 109.00 434.63 L 109.00 428.82 L 109.00 423.00 L 104.11 423.00 C93.28,423.00 79.73,416.43 72.72,407.79 C64.80,398.03 62.00,388.84 62.00,372.60 C62.00,363.53 62.27,361.89 64.28,358.91 C68.52,352.62 74.13,351.56 85.14,354.96 C96.47,358.46 107.44,366.25 113.64,375.20 L 116.25 378.96 L 118.95 375.23 C130.04,359.95 153.54,349.09 163.90,354.45 C168.30,356.72 170.11,360.43 170.71,368.37 C171.51,378.98 169.60,391.04 165.93,398.50 C159.30,411.95 145.18,421.75 130.94,422.77 L 124.00 423.27 L 124.00 429.06 L 124.00 434.86 L 129.25 436.39 C136.98,438.64 142.64,442.68 150.90,451.82 C156.25,457.74 159.26,460.26 161.88,460.98 C163.94,461.55 178.58,461.99 195.75,461.99 L 226.00 462.00 L 226.00 393.50 L 226.00 325.00 L 128.25 324.99 C64.66,324.99 29.21,324.63 26.81,323.97 C21.59,322.51 18.00,317.91 18.00,312.66 C18.00,308.39 22.56,300.61 62.20,237.31 C72.08,221.52 75.33,219.24 80.55,224.45 C83.91,227.82 83.62,231.44 79.47,237.95 C77.56,240.95 76.00,243.77 76.00,244.20 C76.00,244.64 89.06,245.00 105.02,245.00 L 134.04 245.00 L 135.02 242.75 C135.56,241.51 138.71,231.05 142.01,219.50 C145.32,207.95 148.28,197.71 148.58,196.75 C149.10,195.12 147.65,195.00 127.64,195.00 L 106.15 195.00 L 102.32 200.75 C98.95,205.82 98.06,206.54 94.81,206.81 C88.48,207.33 85.05,201.60 88.14,195.68 C91.66,188.95 96.42,183.03 99.48,181.58 C102.58,180.11 116.91,179.96 256.00,179.96 C395.84,179.96 409.41,180.10 412.57,181.60 C416.44,183.43 416.52,183.56 441.92,224.50 C496.21,312.00 493.98,308.23 493.99,312.67 C494.00,317.91 490.41,322.51 485.19,323.97 C482.79,324.63 447.34,324.99 383.75,324.99 L 286.00 325.00 L 286.00 393.50 L 286.00 462.00 L 316.25 461.99 C333.42,461.99 348.06,461.55 350.12,460.98 C352.74,460.26 355.75,457.74 361.10,451.82 C369.36,442.68 375.02,438.64 382.75,436.39 L 388.00 434.86 L 388.00 428.93 L 388.00 423.00 L 382.97 423.00 C377.24,423.00 367.60,420.03 362.15,416.59 C356.00,412.71 349.06,404.91 345.94,398.37 C340.74,387.47 339.39,364.91 343.56,358.54 C347.14,353.09 353.05,351.84 362.87,354.45 C374.37,357.51 386.00,365.52 393.05,375.23 L 395.75 378.96 L 398.36 375.20 C404.56,366.25 415.53,358.46 426.86,354.96 C437.87,351.56 443.48,352.62 447.72,358.91 C449.73,361.89 450.00,363.53 450.00,372.60 C450.00,388.84 447.20,398.03 439.28,407.79 C432.27,416.43 418.72,423.00 407.89,423.00 L 403.00 423.00 L 403.00 428.82 L 403.00 434.63 L 408.35 436.32 C416.52,438.90 425.08,444.96 430.50,452.00 C437.71,461.37 439.53,461.95 462.00,462.00 C477.87,462.04 481.08,462.31 484.62,463.91 C493.37,467.89 496.59,476.66 495.76,494.31 C495.26,504.84 493.87,508.18 488.90,510.74 C487.08,511.67 473.34,511.97 432.36,511.99 C380.94,512.00 378.11,511.91 375.91,510.13 C372.70,507.53 372.70,501.47 375.91,498.87 C378.10,497.10 380.88,497.00 429.15,497.00 L 480.07 497.00 L 479.79 487.25 L 479.50 477.50 L 459.00 477.00 C439.01,476.51 438.36,476.43 432.75,473.67 C428.94,471.81 425.38,468.95 422.25,465.26 C411.54,452.65 406.56,449.68 396.07,449.61 C387.00,449.55 379.85,452.92 373.92,460.05 C366.89,468.51 363.87,471.14 358.00,473.91 L 352.50 476.50 L 256.00 476.50 L 159.50 476.50 L 154.00 473.91 C148.13,471.14 145.11,468.51 138.08,460.05 C132.15,452.92 125.00,449.55 115.93,449.61 C105.44,449.68 100.46,452.65 89.75,465.26 C86.62,468.95 83.06,471.81 79.25,473.67 C73.60,476.45 73.13,476.51 53.19,476.84 L 32.88 477.18 L 31.94 479.65 C31.42,481.02 31.00,485.48 31.00,489.57 L 31.00 497.00 L 189.55 497.00 L 348.09 497.00 L 350.55 499.45 C353.67,502.58 353.67,506.42 350.55,509.55 L 348.09 512.00 L 186.80 511.99 C60.77,511.97 24.97,511.70 23.10,510.74 ZM 271.00 393.50 L 271.00 325.00 L 256.00 325.00 L 241.00 325.00 L 241.00 393.50 L 241.00 462.00 L 256.00 462.00 L 271.00 462.00 L 271.00 393.50 ZM 108.58 402.92 C106.47,386.99 95.75,373.74 81.52,369.46 L 77.00 368.10 L 77.00 375.37 C77.00,389.83 82.27,399.48 93.14,404.91 C97.56,407.12 100.74,408.00 104.29,408.00 L 109.26 408.00 L 108.58 402.92 ZM 139.57 405.20 C149.76,399.94 155.13,390.38 155.36,377.12 C155.52,367.21 155.63,367.28 146.28,371.50 C134.59,376.78 125.40,389.54 124.26,402.05 L 123.69 408.31 L 129.67 407.76 C132.96,407.47 137.41,406.31 139.57,405.20 ZM 387.65 401.90 C386.32,389.24 377.30,376.74 365.72,371.50 C356.37,367.28 356.48,367.21 356.64,377.12 C356.82,387.26 359.07,393.40 364.80,399.33 C370.50,405.24 376.12,407.76 383.89,407.91 L 388.28 408.00 L 387.65 401.90 ZM 418.86 404.91 C429.73,399.48 435.00,389.83 435.00,375.37 L 435.00 368.10 L 430.32 369.50 C421.09,372.28 411.91,380.24 407.26,389.50 C405.27,393.46 403.00,402.28 403.00,406.05 C403.00,409.30 411.27,408.71 418.86,404.91 ZM 116.37 308.25 C116.65,307.29 119.83,296.30 123.44,283.84 C127.05,271.37 130.00,260.91 130.00,260.59 C130.00,260.26 115.49,260.02 97.75,260.04 L 65.50 260.07 L 51.00 283.61 C43.03,296.56 36.35,307.80 36.18,308.58 C35.90,309.79 41.78,310.00 75.86,310.00 C113.10,310.00 115.90,309.88 116.37,308.25 ZM 202.49 308.75 C202.73,308.06 203.97,296.81 205.26,283.74 L 207.60 259.97 L 176.68 260.24 L 145.76 260.50 L 138.92 284.00 C135.15,296.92 132.06,308.06 132.04,308.75 C132.01,309.73 139.65,310.00 167.03,310.00 C194.16,310.00 202.16,309.72 202.49,308.75 ZM 294.00 308.26 C294.00,305.58 289.94,264.67 289.43,262.25 L 288.96 260.00 L 256.00 260.00 L 223.04 260.00 L 222.57 262.25 C222.06,264.67 218.00,305.58 218.00,308.26 C218.00,309.72 221.66,309.88 256.00,309.88 C290.34,309.88 294.00,309.72 294.00,308.26 ZM 379.96 308.75 C379.94,308.06 376.85,296.92 373.08,284.00 L 366.24 260.50 L 335.32 260.24 L 304.40 259.97 L 306.74 283.74 C308.03,296.81 309.27,308.06 309.51,308.75 C309.84,309.72 317.84,310.00 344.97,310.00 C372.35,310.00 379.99,309.73 379.96,308.75 ZM 475.82 308.58 C475.65,307.80 468.98,296.56 461.00,283.61 L 446.50 260.07 L 414.25 260.04 C396.51,260.02 382.00,260.26 382.00,260.59 C382.00,260.91 384.95,271.37 388.56,283.84 C392.17,296.30 395.35,307.29 395.63,308.25 C396.10,309.88 398.90,310.00 436.14,310.00 C470.22,310.00 476.10,309.79 475.82,308.58 ZM 209.45 240.75 C210.04,236.40 214.00,197.20 214.00,195.76 C214.00,195.32 202.87,195.09 189.27,195.23 L 164.53 195.50 L 157.83 218.50 C154.14,231.15 151.09,242.29 151.06,243.25 C151.00,244.88 153.02,245.00 179.94,245.00 L 208.88 245.00 L 209.45 240.75 ZM 287.30 244.25 C287.53,243.84 286.68,233.60 285.42,221.50 C284.15,209.40 283.09,198.49 283.06,197.25 L 283.00 195.00 L 256.00 195.00 L 229.00 195.00 L 228.94 197.25 C228.91,198.49 227.85,209.40 226.58,221.50 C225.32,233.60 224.47,243.84 224.70,244.25 C224.93,244.66 239.01,245.00 256.00,245.00 C272.99,245.00 287.07,244.66 287.30,244.25 ZM 360.94 243.25 C360.91,242.29 357.86,231.15 354.17,218.50 L 347.47 195.50 L 322.73 195.23 C309.13,195.09 298.00,195.32 298.00,195.76 C298.00,197.20 301.96,236.40 302.55,240.75 L 303.12 245.00 L 332.06 245.00 C358.98,245.00 361.00,244.88 360.94,243.25 ZM 436.00 244.25 C436.00,243.83 429.31,232.69 421.14,219.50 L 406.29 195.50 L 384.57 195.23 C364.18,194.98 362.89,195.07 363.41,196.73 C363.72,197.70 366.68,207.95 369.99,219.50 C373.29,231.05 376.44,241.51 376.98,242.75 L 377.96 245.00 L 406.98 245.00 C422.94,245.00 436.00,244.66 436.00,244.25 ZM 250.72 152.25 C246.36,147.43 248.08,133.40 253.25,131.58 C260.19,129.14 264.81,135.41 263.51,145.50 C262.70,151.81 260.76,154.00 256.00,154.00 C253.75,154.00 251.69,153.31 250.72,152.25 ZM 201.34 131.43 C197.64,127.74 198.68,123.77 204.92,117.75 C210.62,112.26 214.30,111.57 217.83,115.31 C221.62,119.35 220.74,123.01 214.56,128.85 C208.30,134.78 205.28,135.37 201.34,131.43 ZM 297.44 128.85 C291.15,122.91 290.26,118.99 294.31,115.17 C298.05,111.67 301.49,112.36 307.08,117.75 C313.32,123.77 314.36,127.74 310.66,131.43 C306.72,135.37 303.70,134.78 297.44,128.85 ZM 249.89 116.87 C237.17,115.15 225.43,106.36 219.71,94.28 C216.73,87.99 216.50,86.74 216.50,77.00 C216.50,67.70 216.81,65.85 219.18,60.78 C230.89,35.80 263.05,29.19 283.02,47.68 C287.01,51.37 290.04,55.37 292.23,59.82 C295.29,66.04 295.50,67.12 295.50,76.98 C295.50,86.35 295.20,88.14 292.77,93.34 C289.07,101.22 285.00,106.14 278.70,110.32 C269.96,116.12 260.42,118.29 249.89,116.87 ZM 264.92 100.78 C269.45,99.39 276.85,92.48 279.13,87.50 C282.96,79.11 280.75,66.63 274.19,59.62 C264.94,49.73 247.06,49.73 237.81,59.62 C228.61,69.45 228.73,85.46 238.07,94.82 C245.35,102.13 254.10,104.07 264.92,100.78 ZM 183.32 83.99 C178.86,82.20 177.55,75.45 181.00,72.00 C182.64,70.36 184.33,70.00 190.50,70.00 C199.33,70.00 202.00,71.73 202.00,77.43 C202.00,82.50 198.35,85.02 191.12,84.94 C188.03,84.90 184.52,84.48 183.32,83.99 ZM 312.75 83.02 C309.35,80.34 309.03,75.42 312.04,72.19 C313.78,70.31 315.15,70.00 321.54,70.00 C327.67,70.00 329.36,70.36 331.00,72.00 C333.52,74.52 333.57,79.07 331.12,82.10 C329.56,84.03 328.08,84.49 322.37,84.81 C316.48,85.14 315.11,84.88 312.75,83.02 ZM 210.41 40.95 C207.46,39.86 199.00,30.33 199.00,28.10 C199.00,24.66 203.29,20.67 206.98,20.67 C209.65,20.67 211.22,21.65 215.14,25.76 C218.63,29.41 220.00,31.66 220.00,33.70 C220.00,39.18 215.27,42.75 210.41,40.95 ZM 297.26 41.21 C294.39,40.77 292.00,37.35 292.00,33.70 C292.00,31.66 293.37,29.41 296.86,25.76 C302.73,19.60 306.80,18.90 310.66,23.39 C314.07,27.36 313.59,29.50 307.95,35.46 C302.77,40.94 301.13,41.82 297.26,41.21 ZM 254.00 23.28 C249.32,21.59 247.20,15.68 248.51,7.95 C250.30,-2.63 261.70,-2.63 263.49,7.95 C264.38,13.20 263.30,19.43 261.18,21.29 C259.08,23.13 255.97,23.99 254.00,23.28 Z" fill="rgba(67,102,195,1)"/>
</g>
</svg>